<svg width="63" height="62" viewBox="0 0 63 62" fill="none" xmlns="http://www.w3.org/2000/svg">
<mask id="mask0_1903_1974" style="mask-type:alpha" maskUnits="userSpaceOnUse" x="0" y="0" width="63" height="62">
<circle cx="31.5" cy="31" r="31" fill="#D9D9D9"/>
</mask>
<g mask="url(#mask0_1903_1974)">
<mask id="mask1_1903_1974" style="mask-type:luminance" maskUnits="userSpaceOnUse" x="-10" y="-1" width="84" height="64">
<path d="M-9.5 -0.00292969H73.4151V62.1895H-9.5V-0.00292969Z" fill="white"/>
</mask>
<g mask="url(#mask1_1903_1974)">
<path fill-rule="evenodd" clip-rule="evenodd" d="M76.3789 62.1895H-12.4639V-0.00292969H76.3789V62.1895Z" fill="#BA0000"/>
<path fill-rule="evenodd" clip-rule="evenodd" d="M30.6942 30.0973C30.6942 30.0973 24.4264 27.4007 25.3253 20.404C26.1877 17.0393 27.7304 14.7436 30.512 13.4924C31.8239 13.0916 33.16 12.9094 34.5205 12.8C34.1561 13.1402 33.8646 13.4803 33.7067 13.8933C33.4151 14.6707 33.6338 15.3995 34.0346 16.1405C34.5326 16.9907 34.8363 17.8653 34.9335 19.0071C35.0248 19.7852 34.9088 20.5736 34.5974 21.2924C34.286 22.0113 33.7901 22.6351 33.16 23.1007C32.3583 23.7202 31.4109 23.9388 30.6335 24.6433C30.0261 25.2264 29.6617 25.8216 29.5403 26.8419C29.516 28.7976 30.0383 29.077 30.6942 30.0973Z" fill="white"/>
<path fill-rule="evenodd" clip-rule="evenodd" d="M29.4917 19.9788V19.9424V19.9788Z" fill="#BA0000"/>
<path d="M29.4917 19.9788V19.9424" stroke="black" stroke-width="0.255086"/>
<path d="M29.8925 29.3684C27.4631 27.2183 27.6696 21.7887 29.5281 19.9788" stroke="#BA0000" stroke-width="0.255086"/>
<path fill-rule="evenodd" clip-rule="evenodd" d="M31.0222 18.7642L31.4231 19.4323L30.6942 19.1286L30.1233 19.7359L30.2205 18.9464L29.4917 18.6427L30.2813 18.4605L30.3784 17.6831L30.7793 18.3512L31.581 18.169" fill="#BA0000"/>
<path fill-rule="evenodd" clip-rule="evenodd" d="M31.2288 29.6357C31.2288 29.6357 31.9576 22.8456 38.9178 21.6552C42.3918 21.5094 45.0398 22.299 47.0562 24.6069C47.8215 25.7366 48.3803 26.9634 48.8783 28.2267C48.4531 27.9838 48.0523 27.8016 47.5907 27.7773C46.7769 27.7165 46.1331 28.1417 45.55 28.7369C44.8691 29.4906 44.0202 30.0732 43.072 30.4374C42.3557 30.7542 41.5684 30.876 40.7899 30.7907C40.0113 30.7054 39.2691 30.4159 38.6384 29.9516C37.8124 29.3564 37.3265 28.5182 36.4277 27.9838C35.6971 27.5495 34.8313 27.4023 33.9983 27.5708C32.1155 28.1295 32.0183 28.7126 31.2288 29.6357Z" fill="white"/>
<path fill-rule="evenodd" clip-rule="evenodd" d="M40.5454 25.53H40.5818H40.5454Z" fill="#BA0000"/>
<path d="M40.5454 25.53H40.5818" stroke="black" stroke-width="0.255086"/>
<path d="M31.6781 28.6638C33.0386 25.7 38.286 24.3152 40.5575 25.5542" stroke="#BA0000" stroke-width="0.255086"/>
<path fill-rule="evenodd" clip-rule="evenodd" d="M42.161 26.6353L41.6387 27.2062L41.7116 26.4167L40.9828 26.0523L41.748 25.9308L41.8209 25.1169L42.2339 25.8458L43.0113 25.7L42.489 26.2709L42.8899 26.9997" fill="#BA0000"/>
<path fill-rule="evenodd" clip-rule="evenodd" d="M31.6903 30.1215C31.6903 30.1215 38.3711 28.6638 41.6994 34.8952C42.9505 38.1384 43.0356 40.8958 41.4929 43.5317C40.6669 44.6249 39.6709 45.5359 38.6384 46.4227C38.7355 45.9368 38.772 45.4995 38.6505 45.0622C38.4562 44.2605 37.8488 43.7868 37.0957 43.4224C36.1612 43.0137 35.337 42.3893 34.6906 41.6003C34.1665 41.0215 33.8042 40.3148 33.64 39.5514C33.4758 38.788 33.5156 37.9949 33.7553 37.2517C34.0468 36.28 34.6906 35.5511 34.9092 34.5308C35.091 33.7024 34.9567 32.8359 34.5327 32.1014C33.403 30.498 32.82 30.583 31.6903 30.1215Z" fill="white"/>
<path fill-rule="evenodd" clip-rule="evenodd" d="M38.5411 37.6648L38.5654 37.6891L38.5411 37.6648Z" fill="#BA0000"/>
<path d="M38.5411 37.6648L38.5654 37.6891" stroke="black" stroke-width="0.255086"/>
<path d="M32.7714 30.2429C36.0025 30.5952 38.9785 35.126 38.529 37.689" stroke="#BA0000" stroke-width="0.255086"/>
<path fill-rule="evenodd" clip-rule="evenodd" d="M38.0067 39.5475L37.29 39.2316L38.0796 39.0494L38.1768 38.2356L38.5533 38.928L39.3429 38.7458L38.7963 39.3531L39.1607 40.0455L38.4561 39.7297L37.9095 40.3492" fill="#BA0000"/>
<path fill-rule="evenodd" clip-rule="evenodd" d="M31.5445 30.8139C31.5445 30.8139 34.8121 36.8145 29.7832 41.7462C27.0137 43.8597 24.39 44.7222 21.4261 43.9812C20.1507 43.4953 18.9967 42.8029 17.8428 42.0498C18.3287 42.0134 18.7781 41.9284 19.1668 41.6854C19.8713 41.2724 20.1507 40.5558 20.2965 39.7419C20.4229 38.727 20.7893 37.7568 21.3654 36.9117C21.773 36.2448 22.3491 35.6972 23.0358 35.324C23.7225 34.9508 24.4954 34.7652 25.2767 34.786C26.2971 34.7981 27.1716 35.2232 28.2163 35.1504C29.0544 35.041 29.7103 34.8103 30.4513 34.0814C31.666 32.5631 31.4231 32.0165 31.5445 30.8018V30.8139Z" fill="white"/>
<path fill-rule="evenodd" clip-rule="evenodd" d="M26.2242 39.511L26.212 39.5353L26.2242 39.511Z" fill="#BA0000"/>
<path d="M26.2242 39.511L26.212 39.5353" stroke="black" stroke-width="0.255086"/>
<path d="M31.7145 31.8706C32.3097 35.0774 28.7871 39.2195 26.1998 39.4867" stroke="#BA0000" stroke-width="0.255086"/>
<path fill-rule="evenodd" clip-rule="evenodd" d="M24.2686 39.5233L24.3779 38.7458L24.7787 39.4382L25.5804 39.3168L25.0217 39.8755L25.4225 40.5679L24.6816 40.2156L24.1228 40.7744L24.22 39.997L23.479 39.6447" fill="#BA0000"/>
<path fill-rule="evenodd" clip-rule="evenodd" d="M30.8035 30.6803C30.8035 30.6803 26.2363 35.7577 19.8956 32.6724C16.9803 30.7653 15.304 28.5667 15.0247 25.53C15.0611 24.1574 15.3162 22.8455 15.6442 21.5215C15.8507 21.9588 16.0814 22.3475 16.4337 22.639C17.0532 23.1613 17.8306 23.1856 18.6566 23.052C19.648 22.8349 20.6772 22.8599 21.6569 23.1249C22.424 23.2864 23.1348 23.6478 23.7172 24.1726C24.2995 24.6974 24.7328 25.3668 24.973 26.113C25.301 27.0726 25.1917 28.0444 25.6168 29.004C25.9812 29.7571 26.4185 30.2916 27.3538 30.7532C29.2002 31.397 29.6253 30.984 30.8035 30.6924V30.6803Z" fill="white"/>
<path fill-rule="evenodd" clip-rule="evenodd" d="M20.8309 28.5666L20.8066 28.5544L20.8309 28.5666Z" fill="#BA0000"/>
<path d="M20.8309 28.5666L20.8066 28.5544" stroke="black" stroke-width="0.255086"/>
<path d="M29.8562 31.2026C27.0381 32.8181 21.9607 30.8746 20.8431 28.5303" stroke="#BA0000" stroke-width="0.255086"/>
<path fill-rule="evenodd" clip-rule="evenodd" d="M20.175 26.7203L20.9403 26.5624L20.418 27.1698L20.7945 27.8864L20.09 27.5463L19.5677 28.1537L19.6527 27.3277L18.936 26.9876L19.7013 26.8297L19.7863 26.0037" fill="#BA0000"/>
</g>
</g>
</svg>
