<svg width="63" height="62" viewBox="0 0 63 62" fill="none" xmlns="http://www.w3.org/2000/svg">
<mask id="mask0_1903_2305" style="mask-type:alpha" maskUnits="userSpaceOnUse" x="0" y="0" width="63" height="62">
<circle cx="31.5" cy="31" r="31" fill="#D9D9D9"/>
</mask>
<g mask="url(#mask0_1903_2305)">
<path fill-rule="evenodd" clip-rule="evenodd" d="M-9.5 0H73.4151V62.1863H-9.5V0Z" fill="#229E45"/>
<path fill-rule="evenodd" clip-rule="evenodd" d="M32.1389 56.4859L71.1997 31.1321L31.9057 5.70044L-7.28461 31.1839L32.1389 56.4859Z" fill="#F8E509"/>
<path fill-rule="evenodd" clip-rule="evenodd" d="M49.1624 31.0932C49.1624 40.2009 41.7648 47.5855 32.6312 47.5855C29.3674 47.5804 26.1783 46.6077 23.4671 44.7904C20.756 42.9731 18.6445 40.3927 17.3996 37.3756C16.1547 34.3584 15.8323 31.0399 16.4731 27.8396C17.114 24.6392 18.6893 21.7007 20.9999 19.3955C23.3105 17.0903 26.2527 15.5219 29.4546 14.8886C32.6564 14.2553 35.9742 14.5856 38.9884 15.8375C42.0026 17.0895 44.5779 19.2071 46.3889 21.9225C48.1998 24.6379 49.165 27.8293 49.1624 31.0932Z" fill="#2B49A3"/>
<path fill-rule="evenodd" clip-rule="evenodd" d="M27.2029 40.9782L26.6847 40.6802L26.1665 40.9393L26.2831 40.3563L25.8685 39.9159L26.4515 39.8511L26.7365 39.3329L26.9827 39.877L27.5527 39.9806L27.1252 40.3693M38.2669 43.7766L37.7616 43.4786L37.2434 43.7377L37.347 43.1547L36.9454 42.7272L37.5284 42.6624L37.8005 42.1312L38.0596 42.6754L38.6296 42.779L38.1891 43.1806M33.4993 39.294L33.0588 39.0349L32.6053 39.2681L32.709 38.7628L32.3462 38.3871L32.8644 38.3353L33.0976 37.8689L33.3049 38.3482L33.8102 38.4389L33.4215 38.7887M44.6928 37.6875L44.2523 37.4284L43.7989 37.6616L43.9025 37.1563L43.5527 36.7936L44.058 36.7418L44.2912 36.2883L44.4985 36.7547L44.9908 36.8454L44.6151 37.1822M33.3049 34.332L32.7867 34.047L32.2685 34.3061L32.3721 33.7102L31.9705 33.2826L32.5535 33.2179L32.8256 32.6867L33.0847 33.2308L33.6547 33.3345L33.2142 33.749M19.6628 29.2146L19.1446 28.9296L18.6264 29.1887L18.7559 28.5928L18.3284 28.1652L18.9243 28.1005L19.1834 27.5693L19.4426 28.1134L20.0126 28.2171L19.5851 28.6187M21.3081 36.0292L20.7899 35.7312L20.2717 35.9903L20.3883 35.4073L19.9737 34.9798L20.5567 34.9021L20.8288 34.3839L21.0879 34.928L21.6579 35.0316L21.2304 35.4333M38.3317 26.7142L37.8653 26.4551L37.3989 26.6883L37.5025 26.1701L37.1397 25.7814L37.658 25.7166L37.9041 25.2502L38.1244 25.7426L38.6426 25.8332L38.2539 26.183M37.3859 31.145L37.0361 30.9377L36.6604 31.1191L36.7381 30.7045L36.4531 30.4065L36.8677 30.3547L37.062 29.992L37.2304 30.3806L37.6191 30.4454L37.3341 30.7304M18.9114 37.26L18.5616 37.0656L18.2118 37.2341L18.2895 36.8454L18.0175 36.5604L18.4061 36.5086L18.5875 36.1588L18.7559 36.5215L19.1446 36.5992L18.8466 36.8584M44.7835 38.8405L44.4985 38.698L44.2134 38.8276L44.2782 38.5296L44.058 38.3223L44.3689 38.2835L44.5244 38.0244L44.6539 38.2835L44.9778 38.3482L44.7317 38.5426" fill="#FFFFEF"/>
<path fill-rule="evenodd" clip-rule="evenodd" d="M18.9114 37.2599L18.5616 37.0656L18.2118 37.234L18.2895 36.8453L18.0175 36.5603L18.4061 36.5085L18.5875 36.1587L18.7559 36.5214L19.1446 36.5992L18.8466 36.8583" fill="#FFFFEF"/>
<path fill-rule="evenodd" clip-rule="evenodd" d="M18.9114 37.2598L18.5616 37.0655L18.2118 37.2339L18.2895 36.8453L18.0175 36.5602L18.4061 36.5084L18.5875 36.1586L18.7559 36.5214L19.1446 36.5991L18.8466 36.8582M24.3268 37.2469L23.9899 37.0655L23.6401 37.2339L23.7179 36.8453L23.4458 36.5602L23.8345 36.5084L24.0158 36.1586L24.1843 36.5214L24.5729 36.5862L24.275 36.8582M23.6531 39.0607L23.3162 38.8663L22.9665 39.0477L23.0442 38.659L22.7721 38.3611L23.1608 38.3092L23.3422 37.9594L23.5106 38.3222L23.8992 38.3999L23.6013 38.659M34.9244 35.7829L34.5875 35.5756L34.2248 35.757L34.3025 35.3683L34.0434 35.0704L34.4321 35.0315L34.6134 34.6817L34.7689 35.0445L35.1576 35.1092L34.8725 35.3813M31.6207 35.77L31.2709 35.5756L30.9211 35.757L30.9989 35.3683L30.7397 35.0704L31.1284 35.0315L31.3098 34.6687L31.4652 35.0445L31.8539 35.1092L31.5689 35.3813M22.6555 34.6299L22.4353 34.5003L22.215 34.604L22.2669 34.3578L22.0984 34.1764L22.3446 34.1505L22.4482 33.9303L22.5519 34.1635L22.798 34.2024L22.6167 34.3708M44.356 40.2526L44.0191 40.0582L43.6693 40.2396L43.747 39.8509L43.475 39.553L43.8636 39.5011L44.045 39.1513L44.2134 39.5141L44.6021 39.5918L44.3041 39.8509M41.6094 40.6283L41.3244 40.4469L41.0264 40.6024L41.0912 40.2655L40.8709 40.0323L41.1948 39.9935L41.3503 39.6955L41.4798 40.0064L41.8037 40.0582L41.5576 40.2914M42.9049 40.5894L42.6458 40.4339L42.3738 40.5635L42.4256 40.2655L42.2183 40.0453L42.5163 40.0064L42.6588 39.7473L42.7883 40.0064L43.0863 40.0712L42.8661 40.2785M46.6361 37.3246L46.377 37.1951L46.1179 37.3246L46.1827 37.0266L45.9754 36.8064L46.2734 36.7675L46.4029 36.5084L46.5325 36.7805L46.8045 36.8323L46.5972 37.0396M41.5705 42.455L41.2466 42.2736L40.8968 42.4291L40.9746 42.0663L40.7155 41.8072L41.1041 41.7684L41.2725 41.4445L41.428 41.7813L41.8167 41.8461L41.5187 42.0922M41.5964 43.9319L41.2855 43.7505L40.9746 43.919L41.0523 43.5562L40.8061 43.2971L41.1559 43.2453L41.3114 42.9214L41.4539 43.2582L41.8037 43.323L41.5446 43.5821M39.0831 40.5894L38.8369 40.4339L38.5778 40.5635L38.6296 40.2785L38.4353 40.0582L38.7203 40.0323L38.8499 39.7732L38.9794 40.0323L39.2644 40.0841L39.0572 40.2914M36.7511 40.5894L36.492 40.4339L36.2329 40.5635L36.2976 40.2785L36.0904 40.0582L36.3883 40.0323L36.5179 39.7732L36.6474 40.0323L36.9195 40.0841L36.7122 40.2914M32.7737 37.1044L32.5146 36.9619L32.2555 37.0914L32.3203 36.7934L32.113 36.5862L32.398 36.5473L32.5276 36.2882L32.6572 36.5473L32.9422 36.6121L32.7349 36.8064M33.2142 44.191L33.007 44.0744L32.7737 44.191L32.8256 43.9319L32.6572 43.7505L32.9033 43.7246L33.0199 43.5044L33.1235 43.7376L33.3697 43.7765L33.1883 43.9449M27.2029 32.7254L26.6847 32.4274L26.1665 32.6866L26.2831 32.1036L25.8685 31.676L26.4515 31.5983L26.7365 31.0801L26.9827 31.6242L27.5527 31.7279L27.1252 32.1295" fill="#FFFFEF"/>
<path fill-rule="evenodd" clip-rule="evenodd" d="M48.0742 37.0268C48.3951 36.194 48.6464 35.336 48.8256 34.4616C40.0418 26.7531 30.2604 22.8017 17.9008 23.6179C17.4526 24.4853 17.084 25.3916 16.7996 26.3256C31.4393 24.9264 42.1924 31.4041 48.0742 37.0268Z" fill="white"/>
<path d="M44.1357 32.6996L44.4337 32.868C44.3892 32.956 44.3755 33.0564 44.3948 33.153C44.4251 33.2468 44.49 33.3255 44.5762 33.3733C44.6669 33.4381 44.7575 33.4769 44.8353 33.464C44.913 33.464 44.9648 33.4251 45.0037 33.3733C45.0263 33.3389 45.0355 33.2974 45.0296 33.2567C45.019 33.2088 44.9968 33.1643 44.9648 33.1271C44.9389 33.0883 44.8741 32.9976 44.7705 32.8939C44.664 32.784 44.5842 32.651 44.5373 32.5053C44.505 32.395 44.5134 32.2767 44.5609 32.1721C44.6085 32.0675 44.6921 31.9834 44.7964 31.9352C44.8906 31.8959 44.9948 31.8868 45.0944 31.9093C45.2162 31.9374 45.3309 31.9903 45.4312 32.0648C45.6126 32.1943 45.7292 32.3239 45.7681 32.4794C45.786 32.5521 45.7883 32.6278 45.7749 32.7014C45.7615 32.7751 45.7327 32.8451 45.6903 32.9069L45.3794 32.7126C45.4183 32.6348 45.4312 32.5571 45.4053 32.4923C45.3924 32.4275 45.3405 32.3628 45.2499 32.3109C45.1833 32.2574 45.1019 32.2257 45.0167 32.2203C44.9932 32.2195 44.9699 32.2251 44.9494 32.2365C44.9288 32.2479 44.9118 32.2647 44.9001 32.285C44.8741 32.3239 44.8741 32.3628 44.8871 32.4146C44.9001 32.4664 44.9648 32.5701 45.0944 32.6996C45.2239 32.8292 45.3017 32.9458 45.3535 33.0235C45.3998 33.1084 45.4207 33.2048 45.4138 33.3013C45.4069 33.3977 45.3725 33.4902 45.3146 33.5676C45.254 33.6557 45.1682 33.7234 45.0685 33.762C44.9713 33.8067 44.8627 33.8203 44.7575 33.8008C44.6409 33.7749 44.5243 33.7231 44.3948 33.6324C44.2005 33.5028 44.0839 33.3603 44.045 33.2049C44.0028 33.0286 44.0307 32.8428 44.1227 32.6867L44.1357 32.6996ZM42.6328 31.715L42.9567 31.8834C42.9166 31.9729 42.9075 32.0732 42.9308 32.1684C42.964 32.2574 43.0285 32.3311 43.1122 32.3757C43.2158 32.4405 43.2936 32.4664 43.3713 32.4535C43.449 32.4535 43.5009 32.4146 43.5397 32.3498C43.5594 32.319 43.5685 32.2826 43.5656 32.2462C43.5656 32.2073 43.5397 32.1555 43.5009 32.1166C43.4345 32.0365 43.3654 31.9587 43.2936 31.8834C43.1511 31.7409 43.0604 31.6243 43.0345 31.5207C43.0133 31.454 43.0069 31.3835 43.0159 31.3141C43.0248 31.2447 43.0489 31.1781 43.0863 31.119C43.1355 31.0391 43.2078 30.9759 43.2936 30.9377C43.3826 30.8966 43.4818 30.8831 43.5786 30.8988C43.6984 30.919 43.813 30.963 43.9154 31.0284C44.1098 31.1579 44.2264 31.2875 44.2652 31.43C44.2889 31.5028 44.2964 31.5799 44.2875 31.6559C44.2786 31.7319 44.2533 31.8051 44.2134 31.8705L43.8895 31.6891C43.9284 31.5984 43.9413 31.5336 43.9154 31.4688C43.8895 31.4041 43.8377 31.3393 43.747 31.2875C43.6753 31.236 43.5891 31.2088 43.5009 31.2097C43.4796 31.2112 43.459 31.2178 43.4409 31.2291C43.4228 31.2404 43.4078 31.256 43.3972 31.2745C43.3713 31.3134 43.3713 31.3522 43.3843 31.4041C43.3972 31.4559 43.475 31.5595 43.6045 31.6891C43.7341 31.8186 43.8247 31.9223 43.8636 32C43.9155 32.0813 43.9431 32.1757 43.9431 32.2721C43.9431 32.3685 43.9155 32.4629 43.8636 32.5441C43.8078 32.6345 43.7267 32.7066 43.6304 32.7514C43.5333 32.7962 43.4247 32.8097 43.3195 32.7903C43.1862 32.7678 43.0585 32.7193 42.9438 32.6478C42.7763 32.5585 42.6473 32.4111 42.581 32.2332C42.531 32.0602 42.5495 31.8746 42.6328 31.715ZM40.7932 31.2227L41.7389 29.668L42.879 30.3806L42.7235 30.6397L41.8944 30.1215L41.6871 30.4713L42.4644 30.9506L42.296 31.2097L41.5187 30.7304L41.2596 31.1579L42.1276 31.6761L41.9721 31.9352L40.8061 31.2227H40.7932ZM38.1114 29.0203L38.2539 28.7611L38.9535 29.1109L38.6296 29.7587C38.526 29.7846 38.3964 29.7976 38.2409 29.7846C38.0917 29.7682 37.9467 29.7242 37.8134 29.6551C37.6566 29.5787 37.5226 29.4625 37.4247 29.3182C37.3356 29.1841 37.2904 29.0257 37.2952 28.8648C37.3018 28.6973 37.346 28.5334 37.4247 28.3854C37.5026 28.2296 37.6184 28.096 37.7616 27.9968C37.8985 27.9021 38.0615 27.8523 38.228 27.8543C38.3575 27.8543 38.4871 27.8931 38.6426 27.9838C38.8498 28.0745 38.9794 28.2041 39.0442 28.3466C39.1116 28.488 39.1254 28.6491 39.083 28.8L38.7332 28.6964C38.7547 28.6096 38.7455 28.5181 38.7073 28.4373C38.6685 28.3595 38.6037 28.3077 38.5 28.2559C38.4396 28.2214 38.3726 28.2001 38.3034 28.1934C38.2342 28.1867 38.1643 28.1948 38.0984 28.217C37.9689 28.2559 37.8523 28.3725 37.7616 28.5539C37.6709 28.7352 37.632 28.9037 37.6709 29.0462C37.6888 29.1137 37.7213 29.1766 37.766 29.2303C37.8108 29.284 37.8668 29.3273 37.93 29.3571C37.9948 29.396 38.0725 29.4219 38.1502 29.4219C38.2275 29.4336 38.3062 29.4336 38.3834 29.4219L38.4871 29.2146L38.1114 29.0203ZM26.4255 26.1312L26.6846 24.3174L27.2288 24.4081L27.3713 25.6777L27.8766 24.5117L28.4207 24.5895L28.1616 26.3773L27.8118 26.3255L28.032 24.9134L27.462 26.2737L27.1122 26.2219L26.9697 24.7579L26.7624 26.183L26.4255 26.1312ZM24.5988 25.9109L24.7672 24.0972L26.1016 24.2267L26.0757 24.5377L25.1041 24.447L25.0652 24.8356L25.9721 24.9263L25.9332 25.2373L25.0263 25.1466L24.9875 25.6389L25.998 25.7296L25.9721 26.0405L24.5988 25.9109Z" fill="#309E3A"/>
<path d="M18.5486 24.7839C18.5486 24.5895 18.5875 24.447 18.6393 24.3175C18.6847 24.2253 18.7461 24.142 18.8207 24.0713C18.8871 24.0043 18.9665 23.9514 19.0539 23.9159C19.1834 23.877 19.313 23.8511 19.4425 23.8511C19.7146 23.8511 19.9219 23.9547 20.0903 24.1102C20.1705 24.2092 20.2301 24.3232 20.2657 24.4456C20.3013 24.5679 20.3121 24.6961 20.2976 24.8227C20.2976 25.1078 20.2069 25.341 20.0385 25.5094C19.9519 25.5894 19.8496 25.6503 19.738 25.6882C19.6264 25.7262 19.5081 25.7403 19.3907 25.7296C19.2749 25.7308 19.1601 25.7084 19.0532 25.6639C18.9463 25.6193 18.8496 25.5536 18.7689 25.4705C18.6076 25.2797 18.5285 25.0329 18.5486 24.7839Z" fill="#309E3A"/>
<path d="M18.9244 24.784C18.9244 24.9783 18.9633 25.1338 19.054 25.2504C19.1447 25.354 19.2613 25.4188 19.4167 25.4188C19.484 25.4235 19.5515 25.4131 19.6142 25.3885C19.677 25.3638 19.7334 25.3255 19.7795 25.2763C19.8702 25.1726 19.9091 25.0172 19.922 24.7969C19.922 24.5896 19.8961 24.4342 19.7925 24.3305C19.7503 24.2783 19.697 24.2361 19.6365 24.207C19.576 24.1779 19.5098 24.1625 19.4427 24.1621C19.3745 24.1599 19.3067 24.1727 19.244 24.1996C19.1814 24.2264 19.1253 24.2667 19.0799 24.3176C18.9763 24.4212 18.9374 24.5767 18.9244 24.784Z" fill="#F7FFFF"/>
<path d="M20.6864 25.7166L20.7123 23.9028H21.4896C21.684 23.9028 21.8135 23.9287 21.9042 23.9676C21.9949 23.9935 22.0597 24.0583 22.1115 24.136C22.1633 24.2138 22.1892 24.3174 22.1892 24.434C22.1902 24.5586 22.144 24.679 22.0597 24.7708C21.9639 24.8606 21.8407 24.9153 21.7099 24.9263L21.9042 25.0818C21.956 25.1336 22.0208 25.2372 22.0985 25.3798L22.3188 25.7425H21.8783L21.6192 25.3279L21.4378 25.0688C21.4064 25.0332 21.3662 25.0064 21.3212 24.9911C21.2623 24.9739 21.2012 24.9652 21.1398 24.9652H21.0621V25.7166H20.6864Z" fill="#309E3A"/>
<path d="M21.0751 24.6803H21.3342C21.5156 24.6803 21.6322 24.6803 21.671 24.6544C21.7099 24.6544 21.7488 24.6155 21.7747 24.5896C21.8006 24.5637 21.8135 24.4989 21.8135 24.46C21.8135 24.3823 21.8006 24.3305 21.7617 24.3046C21.7358 24.2657 21.684 24.2398 21.6322 24.2268H21.373L21.0751 24.2139V24.6673V24.6803Z" fill="white"/>
<path d="M22.7593 23.9937L23.433 24.0325C23.5755 24.0325 23.6921 24.0455 23.7698 24.0714C23.8706 24.108 23.96 24.1705 24.0289 24.2528C24.1035 24.3433 24.1567 24.4496 24.1844 24.5637C24.2232 24.6803 24.2362 24.8228 24.2232 24.9912C24.2231 25.1235 24.2012 25.2548 24.1585 25.3799C24.1066 25.5094 24.0289 25.6131 23.9382 25.6908C23.8627 25.753 23.7741 25.7973 23.6791 25.8204C23.6014 25.8463 23.4848 25.8463 23.3552 25.8463L22.6686 25.8074L22.7593 23.9937Z" fill="#309E3A"/>
<path d="M23.109 24.3174L23.0443 25.5222H23.5366C23.6013 25.5222 23.6532 25.4963 23.692 25.4575C23.7309 25.4186 23.7698 25.3668 23.7957 25.289C23.8216 25.2113 23.8475 25.0947 23.8475 24.9522L23.8345 24.6283C23.816 24.56 23.7804 24.4976 23.7309 24.4469C23.6879 24.4037 23.6343 24.3724 23.5754 24.3562C23.4775 24.3344 23.3777 24.3214 23.2774 24.3174H23.109Z" fill="white"/>
<path d="M31.6467 27.2324L32.0743 25.4705L32.6443 25.6L33.0589 25.7296C33.1496 25.7814 33.2273 25.8591 33.2662 25.9757C33.318 26.0794 33.318 26.196 33.2921 26.3385C33.2662 26.4421 33.2273 26.5328 33.1625 26.5976C33.115 26.6545 33.0556 26.7002 32.9884 26.7316C32.9212 26.7629 32.848 26.7791 32.7739 26.779C32.6832 26.779 32.5536 26.7531 32.3852 26.7142L32.1649 26.6494L32.0095 27.3231L31.6467 27.2324Z" fill="#309E3A"/>
<path d="M32.3464 25.8591L32.2428 26.3514L32.4371 26.4033C32.5667 26.4292 32.6703 26.4551 32.7221 26.4421C32.7725 26.4351 32.8195 26.4127 32.8567 26.3779C32.8938 26.3431 32.9192 26.2976 32.9294 26.2478C32.9294 26.183 32.9294 26.1312 32.9035 26.0794C32.8751 26.0267 32.8293 25.9855 32.774 25.9628L32.5278 25.898L32.3594 25.8591H32.3464Z" fill="white"/>
<path d="M33.3309 27.7377L33.9398 26.0276L34.6524 26.2867C34.8467 26.3515 34.9633 26.4163 35.0411 26.4681C35.1058 26.5329 35.1577 26.5976 35.1706 26.7013C35.1836 26.8049 35.1965 26.8956 35.1706 26.9992C35.1188 27.1288 35.0411 27.2195 34.9374 27.2843C34.8338 27.3361 34.7042 27.349 34.5487 27.3231C34.6006 27.3879 34.6524 27.4527 34.6783 27.5304L34.7819 27.8802L34.8597 28.2818L34.4581 28.1393L34.3285 27.6729C34.305 27.5675 34.2747 27.4636 34.2378 27.362C34.2206 27.3217 34.194 27.2861 34.1601 27.2584C34.1342 27.2195 34.0824 27.1936 33.9917 27.1677L33.9269 27.1418L33.6678 27.8673L33.3309 27.7377Z" fill="#309E3A"/>
<path d="M34.0305 26.8697L34.2767 26.9604C34.4451 27.0251 34.5488 27.051 34.6006 27.051C34.6394 27.051 34.6783 27.051 34.7172 27.0122C34.756 26.9863 34.782 26.9474 34.7949 26.8956C34.8208 26.8438 34.8208 26.7919 34.7949 26.7401C34.7757 26.6899 34.7389 26.6484 34.6913 26.6235L34.4322 26.5328L34.173 26.4421L34.0176 26.8697H34.0305Z" fill="white"/>
<path d="M35.4557 27.673C35.5002 27.5213 35.5751 27.3802 35.6759 27.2584C35.7414 27.1802 35.8204 27.1144 35.9091 27.0641C35.9894 27.0187 36.0771 26.988 36.1682 26.9734C36.2978 26.9734 36.4273 26.9734 36.5698 27.0252C36.6856 27.0539 36.794 27.1068 36.8878 27.1805C36.9816 27.2542 37.0587 27.347 37.114 27.4527C37.2176 27.66 37.2176 27.9062 37.1399 28.1912C37.0758 28.4361 36.9174 28.6456 36.6994 28.7742C36.5051 28.8908 36.2719 28.9038 36.0257 28.826C35.9102 28.7966 35.8022 28.7434 35.7085 28.6698C35.6148 28.5961 35.5375 28.5037 35.4816 28.3985C35.4297 28.2852 35.4007 28.1628 35.3962 28.0383C35.3918 27.9138 35.412 27.7897 35.4557 27.673Z" fill="#309E3A"/>
<path d="M35.8184 27.7766C35.7666 27.9709 35.7536 28.1393 35.8184 28.2689C35.8832 28.3984 35.9739 28.4762 36.1164 28.528C36.2459 28.5669 36.3755 28.5539 36.505 28.4762C36.6346 28.4114 36.7123 28.2689 36.7771 28.0616C36.8419 27.8673 36.8419 27.7118 36.7771 27.5822C36.7515 27.5208 36.7127 27.4657 36.6635 27.4209C36.6142 27.3761 36.5557 27.3428 36.4921 27.3231C36.4283 27.3011 36.3606 27.2932 36.2935 27.2999C36.2264 27.3066 36.1615 27.3278 36.1034 27.362C35.9739 27.4397 35.8832 27.5693 35.8184 27.7766Z" fill="white"/>
<path d="M38.9924 30.1993L39.8216 28.5928L40.5082 28.9426C40.6377 29.0047 40.7559 29.0879 40.858 29.1887C40.9228 29.2535 40.9617 29.3312 40.9617 29.4349C40.9617 29.5385 40.9617 29.6292 40.9098 29.7199C40.86 29.8364 40.7672 29.9292 40.6507 29.979C40.5212 30.0049 40.3916 30.0049 40.2491 29.9531C40.3009 30.0308 40.3268 30.1086 40.3528 30.1733C40.3787 30.2511 40.3916 30.3677 40.4046 30.5361L40.4305 30.9507L40.0418 30.7563L39.99 30.277C39.9839 30.1683 39.9709 30.0601 39.9511 29.9531C39.9423 29.9046 39.9198 29.8597 39.8864 29.8235L39.7309 29.7329L39.6661 29.694L39.3163 30.3677L38.9924 30.1993Z" fill="#309E3A"/>
<path d="M39.7955 29.4348L40.0417 29.5644C40.1972 29.6421 40.3008 29.6939 40.3397 29.6939C40.3785 29.6939 40.4304 29.6939 40.4692 29.668C40.5081 29.6551 40.534 29.6162 40.5599 29.5644C40.5858 29.5126 40.5988 29.4608 40.5858 29.4089C40.5698 29.3573 40.5381 29.3121 40.4951 29.2794C40.4193 29.2328 40.3415 29.1896 40.2619 29.1498L40.0028 29.0203L39.7955 29.4348Z" fill="white"/>
<path d="M45.7034 33.5159C45.7872 33.3827 45.8974 33.2681 46.0273 33.1791C46.1144 33.1233 46.211 33.0838 46.3123 33.0625C46.4063 33.0433 46.5033 33.0433 46.5973 33.0625C46.7269 33.0884 46.8435 33.1402 46.9601 33.218C47.0609 33.2808 47.1475 33.3639 47.2144 33.462C47.2814 33.5602 47.3271 33.6712 47.3487 33.788C47.3876 34.0082 47.3228 34.2544 47.1673 34.5005C47.0373 34.7146 46.8276 34.8684 46.5844 34.9281C46.4684 34.9531 46.3484 34.9534 46.2323 34.9288C46.1162 34.9043 46.0066 34.8555 45.9107 34.7856C45.8098 34.7228 45.7232 34.6396 45.6563 34.5415C45.5894 34.4433 45.5436 34.3323 45.522 34.2155C45.4831 33.9823 45.5479 33.7491 45.7034 33.5159Z" fill="#309E3A"/>
<path d="M46.0272 33.7232C45.8976 33.8916 45.8587 34.0471 45.8847 34.1896C45.8942 34.2552 45.9176 34.318 45.9534 34.3739C45.9891 34.4297 46.0364 34.4773 46.0919 34.5135C46.2215 34.6042 46.3511 34.6301 46.4806 34.5912C46.6102 34.5523 46.7397 34.4617 46.8563 34.2803C46.9729 34.0989 47.0247 33.9434 46.9988 33.8139C46.9859 33.6843 46.9081 33.5677 46.7915 33.477C46.6749 33.3863 46.5324 33.3734 46.4029 33.4123C46.2733 33.4382 46.1438 33.5418 46.0142 33.7232H46.0272Z" fill="white"/>
<path d="M29.5996 26.494L29.8976 25.2244L30.8304 25.4446L30.7915 25.6519L30.1049 25.4964L30.0401 25.7815L30.6749 25.924L30.6231 26.1442L29.9883 25.9887L29.9105 26.3385L30.6231 26.507L30.5713 26.7142L29.5996 26.494Z" fill="#309E3A"/>
</g>
</svg>
