<svg width="63" height="62" viewBox="0 0 63 62" fill="none" xmlns="http://www.w3.org/2000/svg">
<mask id="mask0_2046_1838" style="mask-type:alpha" maskUnits="userSpaceOnUse" x="0" y="0" width="63" height="62">
<circle cx="31.5" cy="31" r="31" fill="#D9D9D9"/>
</mask>
<g mask="url(#mask0_2046_1838)">
<path d="M-9.50244 -0.00195312H73.4176V62.1881H-9.50244V-0.00195312Z" fill="#DE2910"/>
<path d="M7.44815 29.0086L13.0452 12.2173L18.6422 29.0086L3.7168 18.7472H22.3736L7.44815 29.0086Z" fill="#FFDE00"/>
<path d="M31.7243 12.5389L25.9643 13.8153L29.8064 9.3381L29.4296 15.3639L26.2331 10.0293L31.7243 12.5389Z" fill="#FFDE00"/>
<path d="M37.5372 19.9063L31.733 18.8488L37.0108 16.2122L34.3265 21.6202L33.4492 15.4634L37.5372 19.9063Z" fill="#FFDE00"/>
<path d="M36.6903 30.2421L31.822 26.9093L37.7163 26.6545L33.0598 30.4974L34.7698 24.5181L36.6903 30.2421Z" fill="#FFDE00"/>
<path d="M29.3686 36.9946L26.1652 32.0401L31.7006 34.0817L25.9211 35.8279L29.8077 30.973L29.3686 36.9946Z" fill="#FFDE00"/>
</g>
</svg>
