<svg width="63" height="62" viewBox="0 0 63 62" fill="none" xmlns="http://www.w3.org/2000/svg">
<mask id="mask0_1903_890" style="mask-type:alpha" maskUnits="userSpaceOnUse" x="0" y="0" width="63" height="62">
<circle cx="31.5" cy="31" r="31" fill="#D9D9D9"/>
</mask>
<g mask="url(#mask0_1903_890)">
<path d="M-9.5 0H73.4151V62.1863H-9.5V0Z" fill="#74ACDF"/>
<path d="M-9.5 20.7288H73.4151V41.4575H-9.5V20.7288Z" fill="white"/>
<path d="M31.5596 31.2548L35.1042 38.9659C35.1042 38.9659 35.1664 39.1151 35.2659 39.0778C35.3654 39.0281 35.3032 38.8912 35.3032 38.8912L32.3556 30.9314M32.2685 33.9288C32.2187 35.0979 32.9401 35.7446 32.853 36.7893C32.7536 37.8465 33.3257 38.4311 33.4749 38.8415C33.5993 39.2519 33.3132 39.4882 33.4376 39.5504C33.562 39.6126 33.8107 39.2892 33.7361 38.7047C33.649 38.1326 33.2137 37.9584 33.3132 36.6774C33.4127 35.3964 32.7909 35.0979 32.9401 33.9412" fill="#F6B40E"/>
<path d="M31.5596 31.2548L35.1042 38.9659C35.1042 38.9659 35.1664 39.1151 35.2659 39.0778C35.3654 39.0281 35.3032 38.8912 35.3032 38.8912L32.3556 30.9314M32.2685 33.9288C32.2187 35.0979 32.9401 35.7446 32.853 36.7893C32.7536 37.8465 33.3257 38.4311 33.4749 38.8415C33.5993 39.2519 33.3132 39.4882 33.4376 39.5504C33.562 39.6126 33.8107 39.2892 33.7361 38.7047C33.649 38.1326 33.2137 37.9584 33.3132 36.6774C33.4127 35.3964 32.7909 35.0979 32.9401 33.9412" stroke="#85340A" stroke-width="0.13681"/>
<path d="M31.528 31.0903L31.8519 39.5709C31.8519 39.5709 31.8522 39.7325 31.9584 39.7361C32.0694 39.7283 32.0643 39.5781 32.0643 39.5781L32.3871 31.0961M31.1596 33.832C30.6663 34.8931 31.0852 35.7666 30.605 36.6985C30.1085 37.6372 30.4134 38.3961 30.3942 38.8325C30.3521 39.2592 29.9973 39.3681 30.0884 39.4731C30.1796 39.5782 30.5331 39.3746 30.6879 38.806C30.8264 38.2441 30.4908 37.9167 31.073 36.7712C31.6552 35.6258 31.1949 35.112 31.7754 34.1005" fill="#F6B40E"/>
<path d="M31.528 31.0903L31.8519 39.5709C31.8519 39.5709 31.8522 39.7325 31.9584 39.7361C32.0694 39.7283 32.0643 39.5781 32.0643 39.5781L32.3871 31.0961M31.1596 33.832C30.6663 34.8931 31.0852 35.7666 30.605 36.6985C30.1085 37.6372 30.4134 38.3961 30.3942 38.8325C30.3521 39.2592 29.9973 39.3681 30.0884 39.4731C30.1796 39.5782 30.5331 39.3746 30.6879 38.806C30.8264 38.2441 30.4908 37.9167 31.073 36.7712C31.6552 35.6258 31.1949 35.112 31.7754 34.1005" stroke="#85340A" stroke-width="0.13681"/>
<path d="M31.5617 30.9262L28.6156 38.8852C28.6156 38.8852 28.554 39.0347 28.6508 39.0786C28.7563 39.1138 28.8091 38.9731 28.8091 38.9731L32.3533 31.2604M30.1722 33.3183C29.3104 34.1098 29.3631 35.0772 28.5628 35.7543C27.745 36.4315 27.7362 37.2494 27.5515 37.6451C27.3492 38.0233 26.9798 37.9881 27.0238 38.12C27.0678 38.252 27.4723 38.1992 27.8329 37.7331C28.1759 37.267 27.9912 36.8361 28.9674 36.0006C29.9436 35.1651 29.7149 34.5143 30.6383 33.802" fill="#F6B40E"/>
<path d="M31.5617 30.9262L28.6156 38.8852C28.6156 38.8852 28.554 39.0347 28.6508 39.0786C28.7563 39.1138 28.8091 38.9731 28.8091 38.9731L32.3533 31.2604M30.1722 33.3183C29.3104 34.1098 29.3631 35.0772 28.5628 35.7543C27.745 36.4315 27.7362 37.2494 27.5515 37.6451C27.3492 38.0233 26.9798 37.9881 27.0238 38.12C27.0678 38.252 27.4723 38.1992 27.8329 37.7331C28.1759 37.267 27.9912 36.8361 28.9674 36.0006C29.9436 35.1651 29.7149 34.5143 30.6383 33.802" stroke="#85340A" stroke-width="0.13681"/>
<path d="M31.6558 30.7873L25.8882 37.013C25.8882 37.013 25.7741 37.1276 25.8466 37.2053C25.9307 37.2781 26.0333 37.1683 26.0333 37.1683L32.2592 31.399M29.4567 32.4656C28.3575 32.867 28.0361 33.781 27.0375 34.1003C26.0228 34.413 25.7017 35.1652 25.3796 35.4602C25.048 35.7322 24.7202 35.5583 24.7103 35.697C24.7005 35.8357 25.0944 35.9418 25.6059 35.6491C26.1012 35.3498 26.0955 34.881 27.3171 34.4826C28.5387 34.0843 28.5765 33.3956 29.7022 33.0908" fill="#F6B40E"/>
<path d="M31.6558 30.7873L25.8882 37.013C25.8882 37.013 25.7741 37.1276 25.8466 37.2053C25.9307 37.2781 26.0333 37.1683 26.0333 37.1683L32.2592 31.399M29.4567 32.4656C28.3575 32.867 28.0361 33.781 27.0375 34.1003C26.0228 34.413 25.7017 35.1652 25.3796 35.4602C25.048 35.7322 24.7202 35.5583 24.7103 35.697C24.7005 35.8357 25.0944 35.9418 25.6059 35.6491C26.1012 35.3498 26.0955 34.881 27.3171 34.4826C28.5387 34.0843 28.5765 33.3956 29.7022 33.0908" stroke="#85340A" stroke-width="0.13681"/>
<path d="M32.4923 34.1279C32.5545 35.2472 33.1888 35.7447 33.0645 36.777C33.3381 35.9686 32.6789 35.3343 32.7162 34.1403M31.7585 31.1802L34.1838 36.4785L32.1565 31.0186" fill="#85340A"/>
<path d="M31.2903 34.1014C30.9194 35.1594 31.315 35.8617 30.8051 36.7679C31.3672 36.1257 31.001 35.2874 31.4924 34.1986M31.7404 31.0974L31.9535 36.9205L32.1699 31.1003" fill="#85340A"/>
<path d="M30.1899 33.6171C29.4424 34.4526 29.5391 35.2529 28.7212 35.8949C29.4863 35.5168 29.4687 34.6021 30.3394 33.7842M31.7553 31.014L29.7238 36.4754L32.1511 31.1811" fill="#85340A"/>
<path d="M29.3585 32.7487C28.3481 33.2345 28.1313 34.0109 27.1299 34.291C27.9815 34.2345 28.3153 33.3827 29.4327 32.9603M31.8009 30.9427L27.8341 35.2109L32.1026 31.2486" fill="#85340A"/>
<path d="M31.7958 30.6951L24.0847 34.2397C24.0847 34.2397 23.9354 34.3019 23.9727 34.4014C24.0225 34.5009 24.1593 34.4387 24.1593 34.4387L32.1191 31.4911M29.1218 31.404C27.9527 31.3542 27.3059 32.0756 26.2612 31.9885C25.204 31.889 24.6195 32.4612 24.209 32.6104C23.7986 32.7348 23.5623 32.4487 23.5001 32.5731C23.4379 32.6975 23.7613 32.9462 24.3458 32.8716C24.918 32.7845 25.0921 32.3492 26.3731 32.4487C27.6542 32.5482 27.9527 31.9264 29.1093 32.0756" fill="#F6B40E"/>
<path d="M31.7958 30.6951L24.0847 34.2397C24.0847 34.2397 23.9354 34.3019 23.9727 34.4014C24.0225 34.5009 24.1593 34.4387 24.1593 34.4387L32.1191 31.4911M29.1218 31.404C27.9527 31.3542 27.3059 32.0756 26.2612 31.9885C25.204 31.889 24.6195 32.4612 24.209 32.6104C23.7986 32.7348 23.5623 32.4487 23.5001 32.5731C23.4379 32.6975 23.7613 32.9462 24.3458 32.8716C24.918 32.7845 25.0921 32.3492 26.3731 32.4487C27.6542 32.5482 27.9527 31.9264 29.1093 32.0756" stroke="#85340A" stroke-width="0.13681"/>
<path d="M31.9604 30.6636L23.4798 30.9875C23.4798 30.9875 23.3181 30.9878 23.3145 31.094C23.3224 31.205 23.4726 31.1999 23.4726 31.1999L31.9545 31.5228M29.2186 30.2953C28.1576 29.8019 27.284 30.2209 26.3521 29.7406C25.4135 29.2441 24.6545 29.549 24.2182 29.5298C23.7914 29.4877 23.6826 29.133 23.5775 29.2241C23.4725 29.3152 23.676 29.6687 24.2447 29.8235C24.8065 29.962 25.134 29.6265 26.2794 30.2086C27.4249 30.7908 27.9386 30.3305 28.9501 30.911" fill="#F6B40E"/>
<path d="M31.9604 30.6636L23.4798 30.9875C23.4798 30.9875 23.3181 30.9878 23.3145 31.094C23.3224 31.205 23.4726 31.1999 23.4726 31.1999L31.9545 31.5228M29.2186 30.2953C28.1576 29.8019 27.284 30.2209 26.3521 29.7406C25.4135 29.2441 24.6545 29.549 24.2182 29.5298C23.7914 29.4877 23.6826 29.133 23.5775 29.2241C23.4725 29.3152 23.676 29.6687 24.2447 29.8235C24.8065 29.962 25.134 29.6265 26.2794 30.2086C27.4249 30.7908 27.9386 30.3305 28.9501 30.911" stroke="#85340A" stroke-width="0.13681"/>
<path d="M32.1245 30.6974L24.1655 27.7512C24.1655 27.7512 24.016 27.6897 23.972 27.7864C23.9368 27.8919 24.0775 27.9447 24.0775 27.9447L31.7903 31.4889M29.7324 29.3078C28.9409 28.446 27.9735 28.4988 27.2963 27.6985C26.6192 26.8806 25.8013 26.8718 25.4055 26.6871C25.0274 26.4848 25.0625 26.1154 24.9306 26.1594C24.7987 26.2034 24.8515 26.6079 25.3176 26.9685C25.7837 27.3115 26.2146 27.1268 27.0501 28.103C27.8856 29.0792 28.5363 28.8505 29.2487 29.774" fill="#F6B40E"/>
<path d="M32.1245 30.6974L24.1655 27.7512C24.1655 27.7512 24.016 27.6897 23.972 27.7864C23.9368 27.8919 24.0775 27.9447 24.0775 27.9447L31.7903 31.4889M29.7324 29.3078C28.9409 28.446 27.9735 28.4988 27.2963 27.6985C26.6192 26.8806 25.8013 26.8718 25.4055 26.6871C25.0274 26.4848 25.0625 26.1154 24.9306 26.1594C24.7987 26.2034 24.8515 26.6079 25.3176 26.9685C25.7837 27.3115 26.2146 27.1268 27.0501 28.103C27.8856 29.0792 28.5363 28.8505 29.2487 29.774" stroke="#85340A" stroke-width="0.13681"/>
<path d="M32.2632 30.7916L26.0375 25.0239C26.0375 25.0239 25.9229 24.9098 25.8453 24.9824C25.7724 25.0664 25.8822 25.169 25.8822 25.169L31.6516 31.3949M30.585 28.5924C30.1835 27.4933 29.2696 27.1718 28.9502 26.1733C28.6376 25.1585 27.8853 24.8374 27.5904 24.5153C27.3184 24.1837 27.4922 23.8559 27.3535 23.8461C27.2148 23.8362 27.1088 24.2302 27.4014 24.7417C27.7008 25.2369 28.1696 25.2312 28.5679 26.4528C28.9662 27.6744 29.655 27.7122 29.9597 28.8379" fill="#F6B40E"/>
<path d="M32.2632 30.7916L26.0375 25.0239C26.0375 25.0239 25.9229 24.9098 25.8453 24.9824C25.7724 25.0664 25.8822 25.169 25.8822 25.169L31.6516 31.3949M30.585 28.5924C30.1835 27.4933 29.2696 27.1718 28.9502 26.1733C28.6376 25.1585 27.8853 24.8374 27.5904 24.5153C27.3184 24.1837 27.4922 23.8559 27.3535 23.8461C27.2148 23.8362 27.1088 24.2302 27.4014 24.7417C27.7008 25.2369 28.1696 25.2312 28.5679 26.4528C28.9662 27.6744 29.655 27.7122 29.9597 28.8379" stroke="#85340A" stroke-width="0.13681"/>
<path d="M28.9227 31.6281C27.8033 31.6903 27.3058 32.3246 26.2735 32.2002C27.0819 32.4738 27.7163 31.8146 28.9102 31.852M31.8703 30.8943L26.572 33.3196L32.032 31.2923" fill="#85340A"/>
<path d="M28.9491 30.426C27.8911 30.0551 27.1888 30.4508 26.2827 29.9408C26.9248 30.503 27.7631 30.1367 28.8519 30.6281M31.9532 30.8761L26.1301 31.0892L31.9502 31.3057" fill="#85340A"/>
<path d="M29.4334 29.3254C28.5979 28.5779 27.7976 28.6746 27.1556 27.8567C27.5338 28.6218 28.4484 28.6042 29.2663 29.4749M32.0366 30.8908L26.5752 28.8593L31.8695 31.2866" fill="#85340A"/>
<path d="M30.302 28.4941C29.8162 27.4838 29.0398 27.2669 28.7596 26.2656C28.8162 27.1172 29.6679 27.4509 30.0904 28.5683M32.1079 30.9366L27.8397 26.9697L31.8021 31.2382" fill="#85340A"/>
<path d="M32.3556 30.9315L28.811 23.2204C28.811 23.2204 28.7488 23.0712 28.6493 23.1085C28.5498 23.1582 28.612 23.295 28.612 23.295L31.5596 31.2549M31.6467 28.2575C31.6964 27.0884 30.9751 26.4417 31.0621 25.3969C31.1616 24.3398 30.5895 23.7552 30.4402 23.3448C30.3159 22.9344 30.6019 22.698 30.4776 22.6359C30.3532 22.5737 30.1044 22.897 30.1791 23.4816C30.2661 24.0537 30.7014 24.2278 30.6019 25.5089C30.5024 26.7899 31.1243 27.0884 30.9751 28.2451" fill="#F6B40E"/>
<path d="M32.3556 30.9315L28.811 23.2204C28.811 23.2204 28.7488 23.0712 28.6493 23.1085C28.5498 23.1582 28.612 23.295 28.612 23.295L31.5596 31.2549M31.6467 28.2575C31.6964 27.0884 30.9751 26.4417 31.0621 25.3969C31.1616 24.3398 30.5895 23.7552 30.4402 23.3448C30.3159 22.9344 30.6019 22.698 30.4776 22.6359C30.3532 22.5737 30.1044 22.897 30.1791 23.4816C30.2661 24.0537 30.7014 24.2278 30.6019 25.5089C30.5024 26.7899 31.1243 27.0884 30.9751 28.2451" stroke="#85340A" stroke-width="0.13681"/>
<path d="M32.3872 31.096L32.0633 22.6154C32.0633 22.6154 32.0629 22.4537 31.9567 22.4501C31.8458 22.458 31.8509 22.6082 31.8509 22.6082L31.528 31.0902M32.7555 28.3543C33.2489 27.2932 32.8299 26.4196 33.3101 25.4877C33.8066 24.5491 33.5018 23.7901 33.5209 23.3538C33.5631 22.927 33.9178 22.8182 33.8267 22.7131C33.7356 22.6081 33.382 22.8117 33.2273 23.3803C33.0888 23.9422 33.4243 24.2696 32.8422 25.4151C32.26 26.5605 32.7203 27.0743 32.1398 28.0858" fill="#F6B40E"/>
<path d="M32.3872 31.096L32.0633 22.6154C32.0633 22.6154 32.0629 22.4537 31.9567 22.4501C31.8458 22.458 31.8509 22.6082 31.8509 22.6082L31.528 31.0902M32.7555 28.3543C33.2489 27.2932 32.8299 26.4196 33.3101 25.4877C33.8066 24.5491 33.5018 23.7901 33.5209 23.3538C33.5631 22.927 33.9178 22.8182 33.8267 22.7131C33.7356 22.6081 33.382 22.8117 33.2273 23.3803C33.0888 23.9422 33.4243 24.2696 32.8422 25.4151C32.26 26.5605 32.7203 27.0743 32.1398 28.0858" stroke="#85340A" stroke-width="0.13681"/>
<path d="M32.3533 31.2604L35.2994 23.3014C35.2994 23.3014 35.361 23.1519 35.2643 23.1079C35.1587 23.0727 35.106 23.2134 35.106 23.2134L31.5618 30.9262M33.7428 28.8683C34.6047 28.0768 34.5519 27.1094 35.3522 26.4322C36.1701 25.755 36.1789 24.9371 36.3636 24.5414C36.5658 24.1632 36.9352 24.1984 36.8912 24.0665C36.8473 23.9346 36.4427 23.9873 36.0821 24.4534C35.7392 24.9195 35.9238 25.3505 34.9477 26.1859C33.9715 27.0214 34.2001 27.6722 33.2767 28.3846" fill="#F6B40E"/>
<path d="M32.3533 31.2604L35.2994 23.3014C35.2994 23.3014 35.361 23.1519 35.2643 23.1079C35.1587 23.0727 35.106 23.2134 35.106 23.2134L31.5618 30.9262M33.7428 28.8683C34.6047 28.0768 34.5519 27.1094 35.3522 26.4322C36.1701 25.755 36.1789 24.9371 36.3636 24.5414C36.5658 24.1632 36.9352 24.1984 36.8912 24.0665C36.8473 23.9346 36.4427 23.9873 36.0821 24.4534C35.7392 24.9195 35.9238 25.3505 34.9477 26.1859C33.9715 27.0214 34.2001 27.6722 33.2767 28.3846" stroke="#85340A" stroke-width="0.13681"/>
<path d="M32.2592 31.399L38.0269 25.1732C38.0269 25.1732 38.141 25.0587 38.0684 24.981C37.9844 24.9081 37.8818 25.018 37.8818 25.018L31.6558 30.7873M34.4584 29.7207C35.5575 29.3193 35.879 28.4053 36.8775 28.0859C37.8923 27.7733 38.2134 27.021 38.5355 26.7261C38.867 26.4541 39.1948 26.628 39.2047 26.4893C39.2146 26.3506 38.8206 26.2445 38.3091 26.5372C37.8139 26.8365 37.8196 27.3053 36.598 27.7036C35.3764 28.1019 35.3386 28.7907 34.2128 29.0954" fill="#F6B40E"/>
<path d="M32.2592 31.399L38.0269 25.1732C38.0269 25.1732 38.141 25.0587 38.0684 24.981C37.9844 24.9081 37.8818 25.018 37.8818 25.018L31.6558 30.7873M34.4584 29.7207C35.5575 29.3193 35.879 28.4053 36.8775 28.0859C37.8923 27.7733 38.2134 27.021 38.5355 26.7261C38.867 26.4541 39.1948 26.628 39.2047 26.4893C39.2146 26.3506 38.8206 26.2445 38.3091 26.5372C37.8139 26.8365 37.8196 27.3053 36.598 27.7036C35.3764 28.1019 35.3386 28.7907 34.2128 29.0954" stroke="#85340A" stroke-width="0.13681"/>
<path d="M31.4227 28.0584C31.3605 26.9391 30.7262 26.4416 30.8506 25.4093C30.577 26.2177 31.2361 26.852 31.1988 28.046M32.1565 31.006L29.7312 25.7078L31.7585 31.1677" fill="#85340A"/>
<path d="M32.6247 28.0848C32.9956 27.0269 32.6 26.3245 33.11 25.4184C32.5478 26.0606 32.9141 26.8989 32.4227 27.9877M32.1747 31.0889L31.9616 25.2658L31.7451 31.086" fill="#85340A"/>
<path d="M33.7253 28.5691C34.4728 27.7337 34.3761 26.9334 35.194 26.2914C34.4288 26.6695 34.4464 27.5841 33.5758 28.402M32.1599 31.1723L34.1914 25.7109L31.7641 31.0052" fill="#85340A"/>
<path d="M34.5565 29.4378C35.5669 28.952 35.7838 28.1756 36.7851 27.8955C35.9335 27.9521 35.5997 28.8038 34.4824 29.2262M32.1141 31.2438L36.081 26.9756L31.8124 30.938" fill="#85340A"/>
<path d="M32.1191 31.4912L39.8302 27.9466C39.8302 27.9466 39.9795 27.8844 39.9422 27.7849C39.8924 27.6854 39.7556 27.7476 39.7556 27.7476L31.7958 30.6952M34.7932 30.7823C35.9623 30.832 36.609 30.1107 37.6537 30.1977C38.7109 30.2972 39.2954 29.7251 39.7059 29.5759C40.1163 29.4515 40.3526 29.7376 40.4148 29.6132C40.477 29.4888 40.1536 29.2401 39.5691 29.3147C38.997 29.4018 38.8228 29.8371 37.5418 29.7376C36.2608 29.6381 35.9623 30.2599 34.8056 30.1107" fill="#F6B40E"/>
<path d="M32.1191 31.4912L39.8302 27.9466C39.8302 27.9466 39.9795 27.8844 39.9422 27.7849C39.8924 27.6854 39.7556 27.7476 39.7556 27.7476L31.7958 30.6952M34.7932 30.7823C35.9623 30.832 36.609 30.1107 37.6537 30.1977C38.7109 30.2972 39.2954 29.7251 39.7059 29.5759C40.1163 29.4515 40.3526 29.7376 40.4148 29.6132C40.477 29.4888 40.1536 29.2401 39.5691 29.3147C38.997 29.4018 38.8228 29.8371 37.5418 29.7376C36.2608 29.6381 35.9623 30.2599 34.8056 30.1107" stroke="#85340A" stroke-width="0.13681"/>
<path d="M31.9545 31.5227L40.4351 31.1988C40.4351 31.1988 40.5968 31.1984 40.6004 31.0922C40.5925 30.9813 40.4423 30.9864 40.4423 30.9864L31.9604 30.6635M34.6963 31.891C35.7573 32.3844 36.6309 31.9654 37.5628 32.4456C38.5014 32.9421 39.2604 32.6373 39.6967 32.6564C40.1235 32.6986 40.2323 33.0533 40.3374 32.9622C40.4424 32.8711 40.2389 32.5175 39.6703 32.3628C39.1084 32.2243 38.7809 32.5598 37.6355 31.9777C36.49 31.3955 35.9763 31.8558 34.9648 31.2753" fill="#F6B40E"/>
<path d="M31.9545 31.5227L40.4351 31.1988C40.4351 31.1988 40.5968 31.1984 40.6004 31.0922C40.5925 30.9813 40.4423 30.9864 40.4423 30.9864L31.9604 30.6635M34.6963 31.891C35.7573 32.3844 36.6309 31.9654 37.5628 32.4456C38.5014 32.9421 39.2604 32.6373 39.6967 32.6564C40.1235 32.6986 40.2323 33.0533 40.3374 32.9622C40.4424 32.8711 40.2389 32.5175 39.6703 32.3628C39.1084 32.2243 38.7809 32.5598 37.6355 31.9777C36.49 31.3955 35.9763 31.8558 34.9648 31.2753" stroke="#85340A" stroke-width="0.13681"/>
<path d="M31.7903 31.4889L39.7493 34.4351C39.7493 34.4351 39.8988 34.4966 39.9428 34.3999C39.978 34.2943 39.8372 34.2416 39.8372 34.2416L32.1245 30.6974M34.1824 32.8784C34.9739 33.7403 35.9413 33.6875 36.6185 34.4878C37.2956 35.3057 38.1135 35.3145 38.5093 35.4992C38.8874 35.7015 38.8523 36.0708 38.9842 36.0269C39.1161 35.9829 39.0633 35.5783 38.5972 35.2178C38.1311 34.8748 37.7002 35.0595 36.8647 34.0833C36.0292 33.1071 35.3784 33.3357 34.6661 32.4123" fill="#F6B40E"/>
<path d="M31.7903 31.4889L39.7493 34.4351C39.7493 34.4351 39.8988 34.4966 39.9428 34.3999C39.978 34.2943 39.8372 34.2416 39.8372 34.2416L32.1245 30.6974M34.1824 32.8784C34.9739 33.7403 35.9413 33.6875 36.6185 34.4878C37.2956 35.3057 38.1135 35.3145 38.5093 35.4992C38.8874 35.7015 38.8523 36.0708 38.9842 36.0269C39.1161 35.9829 39.0633 35.5783 38.5972 35.2178C38.1311 34.8748 37.7002 35.0595 36.8647 34.0833C36.0292 33.1071 35.3784 33.3357 34.6661 32.4123" stroke="#85340A" stroke-width="0.13681"/>
<path d="M31.6516 31.3947L37.8773 37.1624C37.8773 37.1624 37.9919 37.2765 38.0695 37.2039C38.1424 37.1199 38.0326 37.0173 38.0326 37.0173L32.2632 30.7913M33.3298 33.5939C33.7313 34.693 34.6452 35.0145 34.9646 36.013C35.2772 37.0278 36.0295 37.3489 36.3244 37.671C36.5964 38.0025 36.4226 38.3303 36.5613 38.3402C36.7 38.3501 36.806 37.9561 36.5134 37.4446C36.214 36.9494 35.7452 36.9551 35.3469 35.7335C34.9486 34.5119 34.2598 34.4741 33.9551 33.3483" fill="#F6B40E"/>
<path d="M31.6516 31.3947L37.8773 37.1624C37.8773 37.1624 37.9919 37.2765 38.0695 37.2039C38.1424 37.1199 38.0326 37.0173 38.0326 37.0173L32.2632 30.7913M33.3298 33.5939C33.7313 34.693 34.6452 35.0145 34.9646 36.013C35.2772 37.0278 36.0295 37.3489 36.3244 37.671C36.5964 38.0025 36.4226 38.3303 36.5613 38.3402C36.7 38.3501 36.806 37.9561 36.5134 37.4446C36.214 36.9494 35.7452 36.9551 35.3469 35.7335C34.9486 34.5119 34.2598 34.4741 33.9551 33.3483" stroke="#85340A" stroke-width="0.13681"/>
<path d="M34.9921 30.5584C36.1115 30.4963 36.609 29.862 37.6413 29.9863C36.8328 29.7127 36.1985 30.3719 35.0046 30.3346M32.0445 31.2922L37.3428 28.867L31.8828 30.8942" fill="#85340A"/>
<path d="M34.9658 31.7605C36.0238 32.1314 36.7261 31.7357 37.6322 32.2457C36.9901 31.6835 36.1518 32.0498 35.063 31.5584M31.9618 31.3104L37.7848 31.0973L31.9647 30.8808" fill="#85340A"/>
<path d="M34.4814 32.8609C35.3169 33.6084 36.1172 33.5117 36.7592 34.3296C36.381 33.5645 35.4664 33.582 34.6485 32.7114M31.8782 31.2955L37.3396 33.327L32.0453 30.8997" fill="#85340A"/>
<path d="M33.6128 33.6922C34.0986 34.7025 34.875 34.9194 35.1552 35.9207C35.0986 35.0691 34.2469 34.7354 33.8244 33.618M31.8069 31.2497L36.0751 35.2166L32.1127 30.948" fill="#85340A"/>
<path d="M31.9575 34.5523C33.8679 34.5523 35.4166 33.0036 35.4166 31.0931C35.4166 29.1827 33.8679 27.634 31.9575 27.634C30.0471 27.634 28.4984 29.1827 28.4984 31.0931C28.4984 33.0036 30.0471 34.5523 31.9575 34.5523Z" fill="#F6B40E" stroke="#85340A" stroke-width="0.181377"/>
<path d="M33.1365 30.3547C32.9033 30.3547 32.6701 30.4584 32.5405 30.6657C32.7996 30.9118 33.3956 30.9248 33.7972 30.6398C33.7124 30.5497 33.61 30.4779 33.4963 30.4289C33.3827 30.3799 33.2602 30.3546 33.1365 30.3547ZM33.1365 30.4066C33.3567 30.4066 33.577 30.5102 33.6029 30.6138C33.3438 30.9118 32.9162 30.873 32.6442 30.6657C32.6963 30.5831 32.7693 30.5157 32.8557 30.4703C32.9421 30.4248 33.0389 30.4028 33.1365 30.4066Z" fill="#843511"/>
<path d="M33.1753 30.1863C32.8255 30.1863 32.7478 30.277 32.5923 30.4065C32.4369 30.5361 32.3462 30.5102 32.3332 30.5361C32.2943 30.562 32.3332 30.6397 32.3721 30.6138C32.4368 30.5879 32.5405 30.5361 32.696 30.4065C32.8514 30.277 33.0198 30.277 33.1753 30.277C33.6547 30.277 33.9138 30.6656 33.9786 30.6397C34.0174 30.6138 33.7065 30.1863 33.1753 30.1863Z" fill="#85340A"/>
<path d="M34.134 30.3547C33.5251 29.8235 32.7478 29.7329 32.3203 30.1345C32.2199 30.2678 32.1533 30.4233 32.1259 30.5879C32.0741 30.8859 32.1648 31.2098 32.398 31.5466L32.2944 31.5984C32.0909 31.2271 32.0179 30.7983 32.0871 30.3806C32.104 30.2792 32.13 30.1795 32.1648 30.0827C32.7478 29.6033 33.551 29.5644 34.134 30.3418V30.3547Z" fill="#85340A"/>
<path d="M33.1236 30.86C33.2595 30.86 33.3697 30.7498 33.3697 30.6138C33.3697 30.4779 33.2595 30.3677 33.1236 30.3677C32.9876 30.3677 32.8774 30.4779 32.8774 30.6138C32.8774 30.7498 32.9876 30.86 33.1236 30.86Z" fill="#85340A"/>
<path d="M33.8102 30.7694C33.3567 31.1191 32.9033 31.0932 32.6442 30.9378C32.3851 30.7694 32.3851 30.7175 32.4369 30.7175C32.4887 30.7175 32.5405 30.7693 32.7478 30.8859C32.9681 30.9896 33.279 30.9896 33.8102 30.7694Z" fill="#85340A"/>
<path d="M31.4393 31.5725C31.3977 31.5767 31.3579 31.5914 31.3236 31.6152C31.2893 31.6391 31.2616 31.6712 31.2431 31.7087C31.2247 31.7462 31.2161 31.7878 31.2181 31.8295C31.2201 31.8712 31.2328 31.9118 31.2548 31.9473C31.2768 31.9828 31.3076 32.0121 31.344 32.0324C31.3805 32.0528 31.4216 32.0635 31.4634 32.0636C31.5052 32.0637 31.5463 32.0532 31.5829 32.033C31.6194 32.0128 31.6503 31.9836 31.6725 31.9482C31.7579 32.0013 31.857 32.0283 31.9575 32.026H31.9834C32.0884 32.0317 32.1926 32.0045 32.2814 31.9482C32.3053 31.9811 32.337 32.0075 32.3737 32.0251C32.4103 32.0428 32.4507 32.0511 32.4913 32.0492C32.5319 32.0474 32.5715 32.0356 32.6064 32.0148C32.6413 31.994 32.6705 31.9648 32.6915 31.93C32.7124 31.8951 32.7243 31.8556 32.7263 31.815C32.7282 31.7744 32.72 31.734 32.7025 31.6973C32.685 31.6606 32.6587 31.6288 32.6259 31.6048C32.5931 31.5808 32.5549 31.5652 32.5146 31.5596C32.5794 31.5984 32.6182 31.6503 32.6182 31.728C32.6182 31.8057 32.5535 31.8835 32.4628 31.8835C32.4215 31.8835 32.382 31.8671 32.3528 31.8379C32.3237 31.8088 32.3073 31.7692 32.3073 31.728C32.2766 31.7919 32.229 31.8463 32.1696 31.8851C32.1102 31.9239 32.0414 31.9458 31.9705 31.9482C31.9018 31.9435 31.8357 31.9206 31.7788 31.8819C31.7218 31.8432 31.6762 31.7901 31.6466 31.728C31.6467 31.7495 31.6422 31.7709 31.6336 31.7906C31.625 31.8104 31.6124 31.8281 31.5966 31.8428C31.5807 31.8574 31.562 31.8686 31.5416 31.8756C31.5213 31.8826 31.4996 31.8853 31.4782 31.8835C31.4004 31.8835 31.3227 31.8057 31.3227 31.728C31.3227 31.6503 31.3616 31.5984 31.4263 31.5725H31.4393ZM31.6984 32.2851C31.4263 32.2851 31.3097 32.5183 31.0765 32.6737C31.2061 32.6219 31.3227 32.5183 31.5041 32.4146C31.6854 32.311 31.8539 32.4405 31.9575 32.4405C32.0612 32.4405 32.2166 32.311 32.411 32.4146C32.5923 32.5183 32.7089 32.6219 32.8385 32.6737C32.5923 32.5183 32.4887 32.2851 32.2166 32.2851C32.1261 32.2942 32.0381 32.3206 31.9575 32.3628C31.8778 32.3161 31.7898 32.2853 31.6984 32.2721V32.2851Z" fill="#85340A"/>
<path d="M31.5948 32.5961C31.4911 32.5961 31.3616 32.622 31.1543 32.6738C31.6336 32.5702 31.7373 32.7386 31.9575 32.7386C32.1648 32.7386 32.2685 32.5702 32.7478 32.6738C32.2296 32.5183 32.113 32.622 31.9575 32.622C31.8539 32.622 31.7762 32.5831 31.5948 32.5961Z" fill="#85340A"/>
<path d="M31.1802 32.6737H31.0765C31.6336 32.7385 31.3745 33.0624 31.9575 33.0624C32.5405 33.0624 32.2814 32.7385 32.8385 32.6737C32.2555 32.6219 32.4369 32.9717 31.9575 32.9717C31.5041 32.9717 31.6466 32.6737 31.1802 32.6737ZM32.4369 33.5417C32.4369 33.4146 32.3864 33.2927 32.2965 33.2028C32.2066 33.1129 32.0846 33.0624 31.9575 33.0624C31.8304 33.0624 31.7085 33.1129 31.6186 33.2028C31.5287 33.2927 31.4782 33.4146 31.4782 33.5417C31.5035 33.4336 31.5646 33.3372 31.6516 33.2682C31.7386 33.1992 31.8464 33.1616 31.9575 33.1616C32.0686 33.1616 32.1764 33.1992 32.2634 33.2682C32.3504 33.3372 32.4116 33.4336 32.4369 33.5417Z" fill="#85340A"/>
<path d="M29.8069 30.3547C30.4158 29.8235 31.1931 29.7329 31.6207 30.1345C31.721 30.2678 31.7876 30.4233 31.815 30.5879C31.8668 30.8859 31.7761 31.2098 31.5429 31.5466L31.6466 31.5984C31.85 31.2271 31.923 30.7983 31.8539 30.3806C31.8369 30.2792 31.8109 30.1795 31.7761 30.0827C31.1931 29.6033 30.3899 29.5644 29.8069 30.3418V30.3547Z" fill="#85340A"/>
<path d="M30.7656 30.1863C31.1154 30.1863 31.1931 30.277 31.3486 30.4065C31.5041 30.5361 31.5948 30.5102 31.6077 30.5361C31.6466 30.562 31.6077 30.6397 31.5688 30.6138C31.5041 30.5879 31.4004 30.5361 31.245 30.4065C31.0895 30.277 30.9211 30.277 30.7656 30.277C30.2863 30.277 30.0271 30.6656 29.9624 30.6397C29.9235 30.6138 30.2344 30.1863 30.7656 30.1863Z" fill="#85340A"/>
<path d="M30.7527 30.3547C30.5195 30.3547 30.2863 30.4584 30.1567 30.6657C30.4158 30.9118 31.0118 30.9248 31.4134 30.6398C31.3286 30.5497 31.2262 30.4779 31.1125 30.4289C30.9989 30.3799 30.8764 30.3546 30.7527 30.3547ZM30.7527 30.4066C30.9729 30.4066 31.1932 30.5102 31.2191 30.6138C30.96 30.9118 30.5324 30.873 30.2604 30.6657C30.3125 30.5831 30.3855 30.5157 30.4719 30.4703C30.5583 30.4248 30.6551 30.4028 30.7527 30.4066Z" fill="#843511"/>
<path d="M30.7786 30.86C30.9146 30.86 31.0248 30.7498 31.0248 30.6138C31.0248 30.4779 30.9146 30.3677 30.7786 30.3677C30.6427 30.3677 30.5325 30.4779 30.5325 30.6138C30.5325 30.7498 30.6427 30.86 30.7786 30.86Z" fill="#85340A"/>
<path d="M30.1309 30.7694C30.5843 31.1191 31.0377 31.0932 31.2969 30.9378C31.556 30.7694 31.556 30.7175 31.5041 30.7175C31.4523 30.7175 31.4005 30.7693 31.1932 30.8859C30.973 30.9896 30.662 30.9896 30.1309 30.7694Z" fill="#85340A"/>
</g>
</svg>
