<svg width="63" height="62" viewBox="0 0 63 62" fill="none" xmlns="http://www.w3.org/2000/svg">
<mask id="mask0_2018_1764" style="mask-type:alpha" maskUnits="userSpaceOnUse" x="0" y="0" width="63" height="62">
<circle cx="31.5" cy="31" r="31" fill="#D9D9D9"/>
</mask>
<g mask="url(#mask0_2018_1764)">
<mask id="mask1_2018_1764" style="mask-type:luminance" maskUnits="userSpaceOnUse" x="-10" y="-1" width="84" height="64">
<path d="M-9.50244 -0.000244141H73.4176V62.1867H-9.50244V-0.000244141Z" fill="white"/>
</mask>
<g mask="url(#mask1_2018_1764)">
<path fill-rule="evenodd" clip-rule="evenodd" d="M-9.50244 -0.000244141H108.653V4.78524H-9.50244V-0.000244141ZM-9.50244 9.57072H108.653V14.3562H-9.50244V9.57072ZM-9.50244 19.1295H108.653V23.9272H-9.50244V19.1295ZM-9.50244 28.7005H108.653V33.486H-9.50244V28.7005ZM-9.50244 38.2715H108.653V43.0569H-9.50244V38.2715ZM-9.50244 47.8303H108.653V52.6158H-9.50244V47.8303ZM-9.50244 57.4012H108.653V62.1867H-9.50244V57.4012Z" fill="#BD3D44"/>
<path fill-rule="evenodd" clip-rule="evenodd" d="M-9.50244 4.78589H108.653V9.57137H-9.50244V4.78589ZM-9.50244 14.3568H108.653V19.1302H-9.50244V14.3568ZM-9.50244 23.9157H108.653V28.7011H-9.50244V23.9157ZM-9.50244 33.4866H108.653V38.2721H-9.50244V33.4866ZM-9.50244 43.0576H108.653V47.8431H-9.50244V43.0576ZM-9.50244 52.6164H108.653V57.4019H-9.50244V52.6164Z" fill="white"/>
<path fill-rule="evenodd" clip-rule="evenodd" d="M-9.50244 -0.000244141H37.7572V33.486H-9.50244V-0.000244141Z" fill="#192F5D"/>
<path fill-rule="evenodd" clip-rule="evenodd" d="M-5.56752 1.43311L-5.13027 2.75701H-3.74564L-4.86306 3.57078L-4.43795 4.90683L-5.56752 4.08091L-6.68494 4.89468L-6.25984 3.57078L-7.3894 2.75701H-5.98048L-5.56752 1.43311ZM2.31516 1.43311L2.74027 2.75701H4.13705L3.00748 3.57078L3.43258 4.90683L2.31516 4.08091L1.18559 4.89468L1.6107 3.57078L0.493279 2.75701H1.87791L2.31516 1.43311ZM10.1857 1.43311L10.623 2.75701H11.9954L10.878 3.57078L11.3031 4.90683L10.1736 4.08091L9.05613 4.89468L9.48124 3.57078L8.35167 2.75701H9.74845L10.1857 1.43311ZM18.0684 1.43311L18.4935 2.75701H19.8903L18.7607 3.57078L19.198 4.90683L18.0684 4.08091L16.9388 4.89468L17.3761 3.57078L16.2465 2.75701H17.6311L18.0684 1.43311ZM25.9389 1.43311L26.3762 2.75701H27.7608L26.6434 3.57078L27.0685 4.90683L25.9389 4.08091L24.8215 4.89468L25.2466 3.57078L24.1292 2.75701H25.5138L25.9389 1.43311ZM33.8216 1.43311L34.2467 2.75701H35.6435L34.5139 3.57078L34.9512 4.90683L33.8216 4.08091L32.692 4.89468L33.1293 3.57078L31.9997 2.75701H33.3965L33.8216 1.43311ZM-1.62011 4.78537L-1.195 6.10927H0.201778L-0.927791 6.92305L-0.51483 8.24695L-1.60796 7.43318L-2.73753 8.24695L-2.33671 6.92305L-3.42984 6.10927H-2.04521L-1.62011 4.78537ZM6.25043 4.78537L6.68768 6.10927H8.07231L6.94275 6.92305L7.38 8.24695L6.25043 7.43318L5.12086 8.24695L5.55812 6.92305L4.42855 6.10927H5.82532L6.25043 4.78537ZM14.1331 4.78537L14.5582 6.10927H15.955L14.8254 6.92305L15.2505 8.24695L14.1331 7.43318L13.0035 8.24695L13.4287 6.92305L12.3112 6.10927H13.6959L14.1331 4.78537ZM22.0037 4.78537L22.4409 6.10927H23.8255L22.696 6.92305L23.1332 8.24695L22.0037 7.43318L20.8862 8.24695L21.3113 6.92305L20.1818 6.10927H21.5907L22.0037 4.78537ZM29.8863 4.78537L30.3114 6.10927H31.7082L30.5787 6.92305L31.0038 8.24695L29.8863 7.43318L28.7568 8.24695L29.1819 6.92305L28.0645 6.10927H29.4491L29.8863 4.78537ZM-5.56752 8.12549L-5.13027 9.47368H-3.74564L-4.86306 10.2875L-4.43795 11.6114L-5.56752 10.7854L-6.68494 11.6114L-6.25984 10.2753L-7.3894 9.46154H-5.98048L-5.56752 8.12549ZM2.31516 8.12549L2.74027 9.46154H4.13705L3.00748 10.2753L3.43258 11.5992L2.31516 10.7733L1.18559 11.5992L1.6107 10.2632L0.493279 9.44939H1.87791L2.31516 8.12549ZM10.1857 8.12549L10.623 9.46154H11.9954L10.878 10.2753L11.3031 11.5992L10.1736 10.7733L9.05613 11.5992L9.48124 10.2632L8.35167 9.44939H9.74845L10.1857 8.12549ZM18.0684 8.12549L18.4935 9.46154H19.8903L18.7607 10.2753L19.198 11.5992L18.0684 10.7733L16.9388 11.5992L17.3761 10.2632L16.2465 9.44939H17.6311L18.0684 8.12549ZM25.9389 8.12549L26.3762 9.46154H27.7608L26.6434 10.2753L27.0685 11.5992L25.9389 10.7733L24.8215 11.5992L25.2466 10.2632L24.1292 9.44939H25.5138L25.9389 8.12549ZM33.8216 8.12549L34.2467 9.46154H35.6435L34.5139 10.2753L34.9512 11.5992L33.8216 10.7733L32.692 11.5992L33.1293 10.2632L31.9997 9.44939H33.3965L33.8216 8.12549ZM-1.62011 11.4778L-1.195 12.8017H0.201778L-0.927791 13.6154L-0.502684 14.9515L-1.62011 14.1256L-2.74967 14.9393L-2.32457 13.6154L-3.44199 12.8017H-2.05736L-1.62011 11.4778ZM6.25043 11.4778L6.68768 12.8017H8.07231L6.94275 13.6154L7.38 14.9515L6.25043 14.1256L5.12086 14.9393L5.55812 13.6154L4.42855 12.8017H5.82532L6.25043 11.4778ZM14.1331 11.4778L14.5582 12.8017H15.955L14.8254 13.6154L15.2505 14.9515L14.1331 14.1256L13.0035 14.9393L13.4287 13.6154L12.3112 12.8017H13.6959L14.1331 11.4778ZM22.0037 11.4778L22.4409 12.8017H23.8255L22.7081 13.6154L23.1332 14.9515L22.0037 14.1256L20.8862 14.9393L21.3113 13.6154L20.1818 12.8017H21.5907L22.0037 11.4778ZM29.8863 11.4778L30.3114 12.8017H31.7082L30.5787 13.6154L31.0038 14.9515L29.8863 14.1256L28.7568 14.9393L29.1819 13.6154L28.0645 12.8017H29.4491L29.8863 11.4778ZM-5.56752 14.83L-5.13027 16.1539H-3.74564L-4.86306 16.9677L-4.43795 18.3037L-5.56752 17.4778L-6.68494 18.2916L-6.25984 16.9677L-7.3894 16.1539H-5.98048L-5.56752 14.83ZM2.31516 14.83L2.74027 16.1539H4.13705L3.00748 16.9677L3.43258 18.2916L2.31516 17.4778L1.18559 18.2916L1.6107 16.9677L0.493279 16.1539H1.87791L2.31516 14.83ZM10.1857 14.83L10.623 16.1539H11.9954L10.878 16.9677L11.3031 18.3037L10.1736 17.4778L9.05613 18.2916L9.48124 16.9677L8.35167 16.1539H9.74845L10.1857 14.83ZM18.0684 14.83L18.4935 16.1539H19.8903L18.7607 16.9677L19.198 18.3037L18.0684 17.4778L16.9388 18.2916L17.3761 16.9677L16.2465 16.1539H17.6311L18.0684 14.83ZM25.9389 14.83L26.3762 16.1539H27.7608L26.6434 16.9677L27.0685 18.3037L25.9389 17.4778L24.8215 18.2916L25.2466 16.9677L24.1292 16.1539H25.5138L25.9389 14.83ZM33.8216 14.83L34.2467 16.1539H35.6435L34.5139 16.9677L34.9512 18.3037L33.8216 17.4778L32.692 18.2916L33.1293 16.9677L31.9997 16.1539H33.3965L33.8216 14.83ZM-1.62011 18.1823L-1.195 19.5062H0.201778L-0.927791 20.32L-0.502684 21.6439L-1.62011 20.8179L-2.74967 21.6439L-2.32457 20.3078L-3.44199 19.494H-2.05736L-1.62011 18.1823ZM6.25043 18.1823L6.68768 19.5062H8.07231L6.94275 20.32L7.38 21.6439L6.25043 20.8179L5.12086 21.6439L5.55812 20.3078L4.42855 19.494H5.82532L6.25043 18.1823ZM14.1331 18.1823L14.5582 19.5062H15.955L14.8254 20.32L15.2505 21.6439L14.1331 20.8179L13.0035 21.6439L13.4287 20.3078L12.3112 19.494H13.6959L14.1331 18.1823ZM22.0037 18.1823L22.4409 19.5062H23.8255L22.7081 20.32L23.1332 21.6439L22.0037 20.8179L20.8862 21.6439L21.3113 20.3078L20.1818 19.494H21.5907L22.0037 18.1823ZM29.8863 18.1823L30.3114 19.5062H31.7082L30.5787 20.32L31.0038 21.6439L29.8863 20.8179L28.7568 21.6439L29.1819 20.3078L28.0645 19.494H29.4491L29.8863 18.1823ZM-5.56752 21.5224L-5.13027 22.8585H-3.74564L-4.86306 23.6722L-4.43795 24.984L-5.56752 24.1702L-6.68494 24.984L-6.25984 23.6601L-7.3894 22.8463H-5.98048L-5.56752 21.5224ZM2.31516 21.5224L2.74027 22.8585H4.13705L3.00748 23.6722L3.44473 24.984L2.31516 24.1702L1.18559 24.984L1.62285 23.6601L0.493279 22.8463H1.87791L2.31516 21.5224ZM10.1857 21.5224L10.623 22.8585H11.9954L10.878 23.6722L11.3031 24.984L10.1736 24.1702L9.05613 24.984L9.48124 23.6601L8.35167 22.8463H9.74845L10.1857 21.5224ZM18.0684 21.5224L18.4935 22.8585H19.8903L18.7607 23.6722L19.198 24.984L18.0684 24.1702L16.9388 24.984L17.3761 23.6601L16.2465 22.8463H17.6311L18.0684 21.5224ZM25.9389 21.5224L26.3762 22.8585H27.7608L26.6434 23.6722L27.0685 24.984L25.9389 24.1702L24.8215 24.984L25.2466 23.6601L24.1292 22.8463H25.5138L25.9389 21.5224ZM33.8216 21.5224L34.2467 22.8585H35.6435L34.5139 23.6722L34.9512 24.984L33.8216 24.1702L32.692 24.984L33.1293 23.6601L31.9997 22.8463H33.3965L33.8216 21.5224ZM-1.62011 24.8747L-1.195 26.1986H0.201778L-0.927791 27.0124L-0.502684 28.3484L-1.62011 27.5225L-2.74967 28.3363L-2.32457 27.0124L-3.44199 26.1986H-2.05736L-1.62011 24.8747ZM6.25043 24.8747L6.68768 26.1986H8.07231L6.94275 27.0124L7.38 28.3484L6.25043 27.5225L5.12086 28.3363L5.55812 27.0124L4.42855 26.1986H5.82532L6.25043 24.8747ZM14.1331 24.8747L14.5582 26.1986H15.955L14.8254 27.0124L15.2505 28.3484L14.1331 27.5225L13.0035 28.3363L13.4287 27.0124L12.3112 26.1986H13.6959L14.1331 24.8747ZM22.0037 24.8747L22.4409 26.1986H23.8255L22.7081 27.0124L23.1332 28.3484L22.0037 27.5225L20.8862 28.3363L21.3113 27.0124L20.1818 26.1986H21.5907L22.0037 24.8747ZM29.8863 24.8747L30.3114 26.1986H31.7082L30.5787 27.0124L31.0038 28.3484L29.8863 27.5225L28.7568 28.3363L29.1819 27.0124L28.0645 26.1986H29.4491L29.8863 24.8747ZM-5.56752 28.2269L-5.13027 29.5508H-3.74564L-4.86306 30.3646L-4.43795 31.6885L-5.56752 30.8747L-6.68494 31.6885L-6.25984 30.3525L-7.3894 29.5387H-5.98048L-5.56752 28.2269ZM2.31516 28.2269L2.74027 29.5508H4.13705L3.00748 30.3646L3.44473 31.6885L2.31516 30.8747L1.18559 31.6885L1.62285 30.3525L0.493279 29.5387H1.87791L2.31516 28.2269ZM10.1857 28.2269L10.623 29.5508H11.9954L10.9023 30.3646L11.3274 31.6885L10.1978 30.8747L9.08042 31.6885L9.50553 30.3525L8.37596 29.5387H9.77274L10.1857 28.2269ZM18.0684 28.2269L18.4935 29.5508H19.8903L18.7607 30.3646L19.198 31.6885L18.0684 30.8747L16.9388 31.6885L17.3761 30.3525L16.2465 29.5387H17.6311L18.0684 28.2269ZM25.9389 28.2269L26.3762 29.5508H27.7608L26.6434 30.3646L27.0685 31.6885L25.9389 30.8747L24.8215 31.6885L25.2466 30.3525L24.1292 29.5387H25.5138L25.9389 28.2269ZM33.8216 28.2269L34.2467 29.5508H35.6435L34.5139 30.3646L34.9512 31.6885L33.8216 30.8747L32.692 31.6885L33.1293 30.3525L31.9997 29.5387H33.3965L33.8216 28.2269Z" fill="white"/>
</g>
</g>
</svg>
