<svg width="63" height="62" viewBox="0 0 63 62" fill="none" xmlns="http://www.w3.org/2000/svg">
<mask id="mask0_2018_768" style="mask-type:alpha" maskUnits="userSpaceOnUse" x="0" y="0" width="63" height="62">
<circle cx="31.5" cy="31" r="31" fill="#D9D9D9"/>
</mask>
<g mask="url(#mask0_2018_768)">
<path d="M-9.50244 -0.00195312H73.4176V20.728H-9.50244V-0.00195312Z" fill="#FF9933"/>
<path d="M-9.50244 20.7283H73.4176V41.4583H-9.50244V20.7283Z" fill="white"/>
<path d="M-9.50244 41.458H73.4176V62.188H-9.50244V41.458Z" fill="#128807"/>
<path d="M31.9575 39.385C36.5371 39.385 40.2495 35.6726 40.2495 31.093C40.2495 26.5135 36.5371 22.801 31.9575 22.801C27.378 22.801 23.6655 26.5135 23.6655 31.093C23.6655 35.6726 27.378 39.385 31.9575 39.385Z" fill="#000088"/>
<path d="M31.9575 38.3486C35.9646 38.3486 39.213 35.1002 39.213 31.0931C39.213 27.086 35.9646 23.8376 31.9575 23.8376C27.9504 23.8376 24.702 27.086 24.702 31.0931C24.702 35.1002 27.9504 38.3486 31.9575 38.3486Z" fill="white"/>
<path d="M31.9573 32.5443C32.7587 32.5443 33.4084 31.8946 33.4084 31.0932C33.4084 30.2918 32.7587 29.6421 31.9573 29.6421C31.1559 29.6421 30.5062 30.2918 30.5062 31.0932C30.5062 31.8946 31.1559 32.5443 31.9573 32.5443Z" fill="#000088"/>
<path d="M39.102 32.4131C39.3063 32.44 39.4938 32.2962 39.5207 32.0919C39.5476 31.8876 39.4037 31.7001 39.1994 31.6732C38.9951 31.6463 38.8077 31.7901 38.7808 31.9945C38.7539 32.1988 38.8977 32.3862 39.102 32.4131Z" fill="#000088"/>
<path d="M31.9575 38.3487L32.2063 33.9954L31.9575 31.9224L31.7087 33.9954L31.9575 38.3487Z" fill="#000088"/>
<path d="M38.5174 34.217C38.7078 34.2959 38.9261 34.2055 39.0049 34.0151C39.0838 33.8247 38.9934 33.6064 38.803 33.5276C38.6126 33.4487 38.3943 33.5391 38.3155 33.7295C38.2366 33.9199 38.327 34.1382 38.5174 34.217Z" fill="#000088"/>
<path d="M30.0798 38.1013L31.4468 33.9607L31.7431 31.894L30.9663 33.832L30.0798 38.1013Z" fill="#000088"/>
<path d="M37.4849 35.8082C37.6484 35.9337 37.8826 35.9028 38.0081 35.7394C38.1336 35.5759 38.1027 35.3416 37.9392 35.2162C37.7757 35.0907 37.5415 35.1216 37.416 35.285C37.2906 35.4485 37.3214 35.6828 37.4849 35.8082Z" fill="#000088"/>
<path d="M28.3299 37.3765L30.722 33.7308L31.5431 31.8111L30.2911 33.482L28.3299 37.3765Z" fill="#000088"/>
<path d="M36.0756 37.0785C36.2011 37.242 36.4353 37.2728 36.5988 37.1473C36.7623 37.0219 36.7932 36.7877 36.6677 36.6242C36.5423 36.4607 36.308 36.4298 36.1445 36.5553C35.981 36.6807 35.9502 36.915 36.0756 37.0785Z" fill="#000088"/>
<path d="M26.8263 36.2234L30.0804 33.3211L31.3704 31.6793L29.7286 32.9693L26.8263 36.2234Z" fill="#000088"/>
<path d="M34.387 37.9404C34.4659 38.1308 34.6842 38.2212 34.8746 38.1423C35.065 38.0635 35.1554 37.8452 35.0765 37.6548C34.9976 37.4644 34.7794 37.374 34.589 37.4529C34.3986 37.5317 34.3082 37.75 34.387 37.9404Z" fill="#000088"/>
<path d="M25.6743 34.7206L29.5687 32.7594L31.2396 31.5074L29.32 32.3285L25.6743 34.7206Z" fill="#000088"/>
<path d="M32.5318 38.3358C32.5587 38.5401 32.7462 38.6839 32.9505 38.657C33.1548 38.6301 33.2986 38.4427 33.2717 38.2384C33.2448 38.034 33.0574 37.8902 32.8531 37.9171C32.6488 37.944 32.5049 38.1314 32.5318 38.3358Z" fill="#000088"/>
<path d="M24.9493 32.9707L29.2187 32.0842L31.1567 31.3074L29.0899 31.6037L24.9493 32.9707Z" fill="#000088"/>
<path d="M30.6375 38.2379C30.6106 38.4422 30.7545 38.6296 30.9588 38.6565C31.1631 38.6834 31.3505 38.5396 31.3774 38.3353C31.4043 38.131 31.2605 37.9435 31.0562 37.9166C30.8519 37.8897 30.6644 38.0336 30.6375 38.2379Z" fill="#000088"/>
<path d="M24.7016 31.0932L29.0549 31.342L31.1279 31.0932L29.0549 30.8445L24.7016 31.0932Z" fill="#000088"/>
<path d="M28.8334 37.6527C28.7545 37.843 28.8449 38.0613 29.0353 38.1402C29.2257 38.219 29.444 38.1286 29.5229 37.9382C29.6017 37.7478 29.5113 37.5296 29.3209 37.4507C29.1305 37.3718 28.9122 37.4623 28.8334 37.6527Z" fill="#000088"/>
<path d="M24.9487 29.2152L29.0893 30.5822L31.1561 30.8785L29.2181 30.1017L24.9487 29.2152Z" fill="#000088"/>
<path d="M27.2422 36.6208C27.1167 36.7843 27.1476 37.0185 27.3111 37.144C27.4746 37.2694 27.7088 37.2386 27.8342 37.0751C27.9597 36.9116 27.9289 36.6774 27.7654 36.5519C27.6019 36.4264 27.3676 36.4573 27.2422 36.6208Z" fill="#000088"/>
<path d="M25.6741 27.4654L29.3197 29.8575L31.2394 30.6786L29.5685 29.4266L25.6741 27.4654Z" fill="#000088"/>
<path d="M25.9723 35.2117C25.8088 35.3372 25.778 35.5714 25.9034 35.7349C26.0289 35.8984 26.2631 35.9293 26.4266 35.8038C26.5901 35.6784 26.621 35.4441 26.4955 35.2806C26.37 35.1171 26.1358 35.0863 25.9723 35.2117Z" fill="#000088"/>
<path d="M26.8269 25.9629L29.7292 29.217L31.371 30.507L30.081 28.8652L26.8269 25.9629Z" fill="#000088"/>
<path d="M25.11 33.5224C24.9196 33.6013 24.8292 33.8196 24.9081 34.0099C24.987 34.2003 25.2052 34.2907 25.3956 34.2119C25.586 34.133 25.6764 33.9147 25.5976 33.7244C25.5187 33.534 25.3004 33.4436 25.11 33.5224Z" fill="#000088"/>
<path d="M28.3297 24.8098L30.2909 28.7042L31.5429 30.3751L30.7218 28.4555L28.3297 24.8098Z" fill="#000088"/>
<path d="M24.7149 31.6677C24.5106 31.6946 24.3668 31.882 24.3937 32.0863C24.4205 32.2907 24.608 32.4345 24.8123 32.4076C25.0166 32.3807 25.1604 32.1933 25.1335 31.9889C25.1066 31.7846 24.9192 31.6408 24.7149 31.6677Z" fill="#000088"/>
<path d="M30.0796 24.0846L30.9661 28.3539L31.7429 30.2919L31.4466 28.2252L30.0796 24.0846Z" fill="#000088"/>
<path d="M24.813 29.7734C24.6087 29.7465 24.4213 29.8903 24.3944 30.0947C24.3675 30.299 24.5113 30.4864 24.7156 30.5133C24.9199 30.5402 25.1074 30.3964 25.1343 30.1921C25.1612 29.9877 25.0173 29.8003 24.813 29.7734Z" fill="#000088"/>
<path d="M31.9577 23.8374L31.7089 28.1907L31.9577 30.2637L32.2064 28.1907L31.9577 23.8374Z" fill="#000088"/>
<path d="M25.3981 27.9692C25.2077 27.8904 24.9895 27.9808 24.9106 28.1712C24.8317 28.3616 24.9221 28.5799 25.1125 28.6587C25.3029 28.7376 25.5212 28.6472 25.6001 28.4568C25.6789 28.2664 25.5885 28.0481 25.3981 27.9692Z" fill="#000088"/>
<path d="M33.8352 24.0847L32.4682 28.2253L32.1719 30.2921L32.9488 28.3541L33.8352 24.0847Z" fill="#000088"/>
<path d="M26.4299 26.378C26.2664 26.2526 26.0321 26.2834 25.9067 26.4469C25.7812 26.6104 25.8121 26.8447 25.9756 26.9701C26.1391 27.0956 26.3733 27.0647 26.4988 26.9012C26.6242 26.7377 26.5934 26.5035 26.4299 26.378Z" fill="#000088"/>
<path d="M35.5852 24.8095L33.1932 28.4552L32.3721 30.3749L33.624 28.704L35.5852 24.8095Z" fill="#000088"/>
<path d="M27.8387 25.1078C27.7132 24.9443 27.479 24.9135 27.3155 25.0389C27.152 25.1644 27.1211 25.3986 27.2466 25.5621C27.3721 25.7256 27.6063 25.7565 27.7698 25.631C27.9333 25.5055 27.9641 25.2713 27.8387 25.1078Z" fill="#000088"/>
<path d="M37.0879 25.9624L33.8338 28.8647L32.5438 30.5065L34.1856 29.2165L37.0879 25.9624Z" fill="#000088"/>
<path d="M29.5281 24.2466C29.4493 24.0562 29.231 23.9658 29.0406 24.0447C28.8502 24.1235 28.7598 24.3418 28.8387 24.5322C28.9175 24.7226 29.1358 24.813 29.3262 24.7342C29.5166 24.6553 29.607 24.437 29.5281 24.2466Z" fill="#000088"/>
<path d="M38.2413 27.4659L34.3468 29.4272L32.6759 30.6791L34.5956 29.858L38.2413 27.4659Z" fill="#000088"/>
<path d="M31.3833 23.851C31.3564 23.6467 31.169 23.5029 30.9647 23.5298C30.7604 23.5567 30.6165 23.7441 30.6434 23.9484C30.6703 24.1527 30.8578 24.2966 31.0621 24.2697C31.2664 24.2428 31.4102 24.0553 31.3833 23.851Z" fill="#000088"/>
<path d="M38.9659 29.2156L34.6966 30.102L32.7586 30.8789L34.8254 30.5826L38.9659 29.2156Z" fill="#000088"/>
<path d="M33.2771 23.9491C33.304 23.7448 33.1602 23.5574 32.9559 23.5305C32.7516 23.5036 32.5641 23.6474 32.5372 23.8517C32.5103 24.056 32.6542 24.2435 32.8585 24.2704C33.0628 24.2973 33.2502 24.1535 33.2771 23.9491Z" fill="#000088"/>
<path d="M39.2132 31.0938L34.8599 30.845L32.7869 31.0938L34.8599 31.3425L39.2132 31.0938Z" fill="#000088"/>
<path d="M35.0814 24.5344C35.1603 24.344 35.0699 24.1257 34.8795 24.0468C34.6891 23.968 34.4708 24.0584 34.3919 24.2488C34.3131 24.4392 34.4035 24.6574 34.5939 24.7363C34.7843 24.8152 35.0025 24.7248 35.0814 24.5344Z" fill="#000088"/>
<path d="M38.9657 32.9715L34.8251 31.6045L32.7584 31.3083L34.6963 32.0851L38.9657 32.9715Z" fill="#000088"/>
<path d="M36.6729 25.5662C36.7983 25.4027 36.7675 25.1685 36.604 25.043C36.4405 24.9176 36.2062 24.9484 36.0808 25.1119C35.9553 25.2754 35.9862 25.5097 36.1497 25.6351C36.3132 25.7606 36.5474 25.7297 36.6729 25.5662Z" fill="#000088"/>
<path d="M38.2411 34.7216L34.5954 32.3295L32.6758 31.5084L34.3467 32.7604L38.2411 34.7216Z" fill="#000088"/>
<path d="M37.9427 26.9748C38.1062 26.8493 38.1371 26.6151 38.0116 26.4516C37.8861 26.2881 37.6519 26.2573 37.4884 26.3827C37.3249 26.5082 37.2941 26.7424 37.4195 26.9059C37.545 27.0694 37.7792 27.1002 37.9427 26.9748Z" fill="#000088"/>
<path d="M37.0881 36.2241L34.1858 32.97L32.5441 31.6801L33.834 33.3218L37.0881 36.2241Z" fill="#000088"/>
<path d="M38.805 28.6644C38.9954 28.5855 39.0858 28.3672 39.0069 28.1768C38.9281 27.9864 38.7098 27.896 38.5194 27.9749C38.329 28.0537 38.2386 28.272 38.3175 28.4624C38.3963 28.6528 38.6146 28.7432 38.805 28.6644Z" fill="#000088"/>
<path d="M35.5853 37.377L33.6241 33.4825L32.3722 31.8117L33.1932 33.7313L35.5853 37.377Z" fill="#000088"/>
<path d="M39.2004 30.5193C39.4047 30.4924 39.5485 30.305 39.5216 30.1007C39.4947 29.8963 39.3073 29.7525 39.103 29.7794C38.8987 29.8063 38.7548 29.9938 38.7817 30.1981C38.8086 30.4024 38.9961 30.5462 39.2004 30.5193Z" fill="#000088"/>
<path d="M33.8354 38.1019L32.949 33.8326L32.1722 31.8946L32.4684 33.9613L33.8354 38.1019Z" fill="#000088"/>
</g>
</svg>
