<svg width="267" height="48" viewBox="0 0 267 48" fill="none" xmlns="http://www.w3.org/2000/svg">
<mask id="mask0_1922_3874" style="mask-type:alpha" maskUnits="userSpaceOnUse" x="0" y="0" width="48" height="48">
<rect width="48" height="48" fill="#D9D9D9"/>
</mask>
<g mask="url(#mask0_1922_3874)">
<path d="M24 40C22.4 38.7333 20.6667 37.75 18.8 37.05C16.9333 36.35 15 36 13 36C11.6 36 10.225 36.1833 8.875 36.55C7.525 36.9167 6.23333 37.4333 5 38.1C4.3 38.4667 3.625 38.45 2.975 38.05C2.325 37.65 2 37.0667 2 36.3V12.2C2 11.8333 2.09167 11.4833 2.275 11.15C2.45833 10.8167 2.73333 10.5667 3.1 10.4C4.63333 9.6 6.23333 9 7.9 8.6C9.56667 8.2 11.2667 8 13 8C14.9333 8 16.825 8.25 18.675 8.75C20.525 9.25 22.3 10 24 11V36.3C25.7 35.2 27.4833 34.375 29.35 33.825C31.2167 33.275 33.1 33 35 33C36.2 33 37.5083 33.1167 38.925 33.35C40.3417 33.5833 41.7 34.0667 43 34.8V9.55C43.3295 9.675 43.6536 9.80625 43.9721 9.94375C44.2907 10.0813 44.6 10.2333 44.9 10.4C45.2333 10.6 45.5 10.8613 45.7 11.1839C45.9 11.5065 46 11.8452 46 12.2V36.3C46 37.0667 45.675 37.65 45.025 38.05C44.375 38.45 43.7 38.4667 43 38.1C41.7667 37.4333 40.475 36.9167 39.125 36.55C37.775 36.1833 36.4 36 35 36C33 36 31.0667 36.35 29.2 37.05C27.3333 37.75 25.6 38.7333 24 40ZM27 31.65V14L40 1V20.35L27 31.65ZM21 34.8V12.85C19.8667 12.2167 18.55 11.75 17.05 11.45C15.55 11.15 14.2 11 13 11C11.4333 11 9.975 11.1667 8.625 11.5C7.275 11.8333 6.06667 12.2589 5 12.7767V34.8C6.16667 34.2333 7.425 33.7917 8.775 33.475C10.125 33.1583 11.5417 33 13.025 33C14.5083 33 15.9167 33.1583 17.25 33.475C18.5833 33.7917 19.8333 34.2333 21 34.8Z" fill="white"/>
</g>
<path d="M259.7 18.3794C260.673 18.3794 261.159 18.0981 261.159 17.5356C261.159 17.2485 261.03 17.02 260.772 16.8501C260.521 16.6802 259.94 16.3931 259.032 15.9888C258.276 15.6724 257.72 15.3794 257.362 15.1099C257.011 14.8403 256.753 14.5327 256.589 14.187C256.431 13.8354 256.352 13.4048 256.352 12.895C256.352 12.022 256.688 11.3481 257.362 10.8735C258.042 10.3931 258.991 10.1528 260.21 10.1528C261.429 10.1528 262.592 10.4106 263.699 10.9263L262.891 12.8599C262.322 12.6196 261.833 12.4409 261.423 12.3237C261.019 12.2007 260.611 12.1392 260.201 12.1392C259.41 12.1392 259.015 12.353 259.015 12.7808C259.015 13.021 259.144 13.2319 259.401 13.4136C259.659 13.5894 260.192 13.8384 261.001 14.1606C261.815 14.4829 262.401 14.7817 262.759 15.0571C263.456 15.5845 263.805 16.3345 263.805 17.3071C263.805 18.2798 263.453 19.0298 262.75 19.5571C262.047 20.0786 261.03 20.3394 259.7 20.3394C258.37 20.3394 257.257 20.1489 256.36 19.7681V17.5532C256.864 17.7876 257.427 17.9839 258.048 18.1421C258.675 18.3003 259.226 18.3794 259.7 18.3794Z" fill="white"/>
<path d="M254.216 19.645C253.313 20.1079 252.162 20.3394 250.762 20.3394C249.18 20.3394 247.943 19.9028 247.053 19.0298C246.162 18.1567 245.717 16.9087 245.717 15.2856C245.717 13.6626 246.127 12.4058 246.947 11.5151C247.768 10.6069 248.89 10.1528 250.313 10.1528C251.737 10.1528 252.833 10.5483 253.601 11.3394C254.38 12.1245 254.77 13.2173 254.77 14.6177V15.9185H248.433C248.462 16.686 248.688 17.2837 249.109 17.7114C249.537 18.1333 250.129 18.3442 250.885 18.3442C251.998 18.3442 253.108 18.0864 254.216 17.5708V19.645ZM252.256 14.1343C252.244 13.478 252.071 12.9683 251.737 12.605C251.409 12.2417 250.961 12.0601 250.393 12.0601C249.824 12.0601 249.376 12.2388 249.048 12.5962C248.726 12.9536 248.541 13.4663 248.494 14.1343H252.256Z" fill="white"/>
<path d="M240.065 10.1528C241.202 10.1528 242.066 10.4634 242.658 11.0845C243.256 11.6997 243.555 12.5903 243.555 13.7563V20.1636H240.874V14.4243C240.874 13.7095 240.745 13.1763 240.487 12.8247C240.235 12.4731 239.837 12.2974 239.292 12.2974C238.542 12.2974 238 12.5493 237.666 13.0532C237.332 13.5571 237.165 14.3862 237.165 15.5405V20.1636H234.484V10.3374H236.532L236.893 11.603H237.042C237.335 11.1284 237.742 10.7681 238.264 10.522C238.791 10.2759 239.392 10.1528 240.065 10.1528Z" fill="white"/>
<path d="M227.603 10.1528C228.505 10.1528 229.311 10.3579 230.02 10.7681C230.734 11.1724 231.285 11.7583 231.672 12.5259C232.064 13.2876 232.261 14.1606 232.261 15.145C232.261 15.1743 232.261 15.2036 232.261 15.2329C232.261 16.8325 231.839 18.0835 230.995 18.9858C230.151 19.8882 228.977 20.3394 227.471 20.3394C227.447 20.3394 227.421 20.3394 227.392 20.3394C226.489 20.3394 225.681 20.1343 224.966 19.7241C224.257 19.3081 223.706 18.7163 223.313 17.9487C222.927 17.1812 222.733 16.3052 222.733 15.3208C222.733 15.2915 222.733 15.2622 222.733 15.2329C222.733 13.6274 223.152 12.3823 223.99 11.4976C224.828 10.6011 226.006 10.1528 227.523 10.1528C227.547 10.1528 227.573 10.1528 227.603 10.1528ZM229.035 13.0356C228.713 12.5552 228.197 12.3149 227.488 12.3149C226.779 12.3149 226.264 12.5522 225.941 13.0269C225.625 13.5015 225.467 14.2368 225.467 15.2329C225.467 16.2231 225.628 16.9644 225.95 17.4565C226.278 17.9429 226.794 18.186 227.497 18.186C228.206 18.186 228.719 17.9429 229.035 17.4565C229.357 16.9702 229.519 16.2319 229.519 15.2417C229.519 14.2456 229.357 13.5103 229.035 13.0356Z" fill="white"/>
<path d="M217.724 7.80615C217.724 6.92725 218.21 6.48779 219.183 6.48779C220.155 6.48779 220.642 6.92432 220.642 7.79736C220.642 8.21924 220.519 8.54443 220.272 8.77295C220.026 9.00146 219.663 9.11572 219.183 9.11572C218.21 9.11572 217.724 8.6792 217.724 7.80615ZM220.519 20.1636H217.838V10.3374H220.519V20.1636Z" fill="white"/>
<path d="M212.564 20.3394C209.506 20.3394 207.977 18.6606 207.977 15.3032C207.977 13.6392 208.393 12.3647 209.225 11.48C210.057 10.5952 211.249 10.1528 212.802 10.1528C213.944 10.1528 214.961 10.3755 215.852 10.8208L215.069 12.895C214.12 12.5083 213.364 12.3149 212.802 12.3149C211.407 12.3149 210.71 13.2905 210.71 15.2417C210.71 17.1929 211.407 18.1685 212.802 18.1685C213.786 18.1685 214.703 17.8843 215.553 17.3159V19.6099C215.096 19.9028 214.656 20.0933 214.234 20.1812C213.795 20.2866 213.238 20.3394 212.564 20.3394Z" fill="white"/>
<path d="M197.957 11.0229C199.094 10.4312 200.339 10.1353 201.692 10.1353C203.046 10.1353 204.068 10.4253 204.76 11.0054C205.457 11.5854 205.806 12.4556 205.806 13.6157V20.1636H203.934L203.415 18.8276H203.345C202.894 19.4019 202.431 19.7974 201.956 20.0142C201.481 20.231 200.857 20.3394 200.084 20.3394C199.146 20.3394 198.402 20.0698 197.852 19.5308C197.312 18.9917 197.043 18.2153 197.043 17.2017C197.043 16.188 197.403 15.4321 198.124 14.9341C198.845 14.4302 199.949 14.1519 201.438 14.0991L203.143 14.0464V13.6157C203.143 12.6196 202.633 12.1216 201.613 12.1216C200.828 12.1216 199.905 12.3589 198.845 12.8335L197.957 11.0229ZM199.794 17.2456C199.794 18.0015 200.228 18.3794 201.095 18.3794C201.722 18.3794 202.22 18.2007 202.589 17.8433C202.958 17.4858 203.143 17.0112 203.143 16.4194V15.6108L202.105 15.646C201.326 15.6694 200.746 15.8101 200.365 16.0679C199.984 16.3257 199.794 16.7183 199.794 17.2456Z" fill="white"/>
<path d="M191.55 10.1528C192.681 10.1528 193.527 10.4429 194.09 11.0229C194.652 11.603 194.934 12.5142 194.934 13.7563V20.1636H192.244V14.4243C192.244 13.7095 192.124 13.1763 191.884 12.8247C191.644 12.4731 191.271 12.2974 190.768 12.2974C190.105 12.2974 189.613 12.5347 189.291 13.0093C188.969 13.4839 188.808 14.2251 188.808 15.2329V20.1636H186.127V14.4243C186.127 13.7095 186.007 13.1763 185.767 12.8247C185.526 12.4731 185.154 12.2974 184.65 12.2974C183.965 12.2974 183.467 12.5493 183.156 13.0532C182.846 13.5571 182.69 14.3862 182.69 15.5405V20.1636H180.01V10.3374H182.058L182.418 11.603H182.567C182.831 11.146 183.212 10.7915 183.71 10.5396C184.208 10.2817 184.779 10.1528 185.424 10.1528C186.9 10.1528 187.896 10.6362 188.412 11.603H188.649C188.913 11.146 189.3 10.7915 189.81 10.5396C190.319 10.2817 190.899 10.1528 191.55 10.1528Z" fill="white"/>
<path d="M169.393 11.0229C170.529 10.4312 171.774 10.1353 173.128 10.1353C174.481 10.1353 175.504 10.4253 176.195 11.0054C176.893 11.5854 177.241 12.4556 177.241 13.6157V20.1636H175.369L174.851 18.8276H174.78C174.329 19.4019 173.866 19.7974 173.392 20.0142C172.917 20.231 172.293 20.3394 171.52 20.3394C170.582 20.3394 169.838 20.0698 169.287 19.5308C168.748 18.9917 168.479 18.2153 168.479 17.2017C168.479 16.188 168.839 15.4321 169.56 14.9341C170.28 14.4302 171.385 14.1519 172.873 14.0991L174.578 14.0464V13.6157C174.578 12.6196 174.068 12.1216 173.049 12.1216C172.264 12.1216 171.341 12.3589 170.28 12.8335L169.393 11.0229ZM171.229 17.2456C171.229 18.0015 171.663 18.3794 172.53 18.3794C173.157 18.3794 173.655 18.2007 174.024 17.8433C174.394 17.4858 174.578 17.0112 174.578 16.4194V15.6108L173.541 15.646C172.762 15.6694 172.182 15.8101 171.801 16.0679C171.42 16.3257 171.229 16.7183 171.229 17.2456Z" fill="white"/>
<path d="M166.308 20.1636H163.627V6.48779H166.308V20.1636Z" fill="white"/>
<path d="M158.354 20.3394C155.295 20.3394 153.766 18.6606 153.766 15.3032C153.766 13.6392 154.182 12.3647 155.014 11.48C155.846 10.5952 157.038 10.1528 158.591 10.1528C159.733 10.1528 160.75 10.3755 161.641 10.8208L160.858 12.895C159.909 12.5083 159.153 12.3149 158.591 12.3149C157.196 12.3149 156.499 13.2905 156.499 15.2417C156.499 17.1929 157.196 18.1685 158.591 18.1685C159.575 18.1685 160.492 17.8843 161.342 17.3159V19.6099C160.885 19.9028 160.445 20.0933 160.023 20.1812C159.584 20.2866 159.027 20.3394 158.354 20.3394Z" fill="white"/>
<path d="M151.63 19.645C150.728 20.1079 149.576 20.3394 148.176 20.3394C146.594 20.3394 145.357 19.9028 144.467 19.0298C143.576 18.1567 143.131 16.9087 143.131 15.2856C143.131 13.6626 143.541 12.4058 144.361 11.5151C145.182 10.6069 146.304 10.1528 147.728 10.1528C149.151 10.1528 150.247 10.5483 151.015 11.3394C151.794 12.1245 152.184 13.2173 152.184 14.6177V15.9185H145.847C145.876 16.686 146.102 17.2837 146.523 17.7114C146.951 18.1333 147.543 18.3442 148.299 18.3442C149.412 18.3442 150.522 18.0864 151.63 17.5708V19.645ZM149.67 14.1343C149.658 13.478 149.485 12.9683 149.151 12.605C148.823 12.2417 148.375 12.0601 147.807 12.0601C147.238 12.0601 146.79 12.2388 146.462 12.5962C146.14 12.9536 145.955 13.4663 145.908 14.1343H149.67Z" fill="white"/>
<path d="M141.039 10.1528C141.408 10.1528 141.71 10.1792 141.944 10.2319L141.742 12.7456C141.531 12.687 141.268 12.6577 140.951 12.6577C140.096 12.6577 139.428 12.8774 138.947 13.3169C138.473 13.7563 138.235 14.3716 138.235 15.1626V20.1636H135.555V10.3374H137.585L137.98 11.9897H138.112C138.429 11.4272 138.839 10.9849 139.343 10.6626C139.858 10.3228 140.424 10.1528 141.039 10.1528Z" fill="white"/>
<path d="M128.146 19.645C127.243 20.1079 126.092 20.3394 124.691 20.3394C123.109 20.3394 121.873 19.9028 120.982 19.0298C120.092 18.1567 119.646 16.9087 119.646 15.2856C119.646 13.6626 120.057 12.4058 120.877 11.5151C121.697 10.6069 122.819 10.1528 124.243 10.1528C125.667 10.1528 126.763 10.5483 127.53 11.3394C128.31 12.1245 128.699 13.2173 128.699 14.6177V15.9185H122.362C122.392 16.686 122.617 17.2837 123.039 17.7114C123.467 18.1333 124.059 18.3442 124.814 18.3442C125.928 18.3442 127.038 18.0864 128.146 17.5708V19.645ZM126.186 14.1343C126.174 13.478 126.001 12.9683 125.667 12.605C125.339 12.2417 124.891 12.0601 124.322 12.0601C123.754 12.0601 123.306 12.2388 122.978 12.5962C122.655 12.9536 122.471 13.4663 122.424 14.1343H126.186Z" fill="white"/>
<path d="M117.44 20.1636H115.384L114.865 18.8892H114.751C114.147 19.856 113.219 20.3394 111.965 20.3394C110.805 20.3394 109.896 19.894 109.24 19.0034C108.584 18.1069 108.256 16.8589 108.256 15.2593C108.256 13.6538 108.59 12.4028 109.258 11.5063C109.932 10.604 110.872 10.1528 112.079 10.1528C113.286 10.1528 114.215 10.6362 114.865 11.603H114.953C114.818 10.8472 114.751 10.1909 114.751 9.63428V6.48779H117.44V20.1636ZM114.936 15.2856C114.936 14.2368 114.771 13.4839 114.443 13.0269C114.115 12.564 113.588 12.3325 112.861 12.3325C112.258 12.3325 111.792 12.5874 111.464 13.0972C111.136 13.6069 110.972 14.3423 110.972 15.3032C110.972 16.2583 111.136 16.9819 111.464 17.4741C111.798 17.9604 112.293 18.2036 112.949 18.2036C113.605 18.2036 114.095 18.0073 114.417 17.6147C114.739 17.2163 114.912 16.5366 114.936 15.5757V15.2856Z" fill="white"/>
<path d="M97.2959 10.1528C98.1982 10.1528 99.0039 10.3579 99.7129 10.7681C100.428 11.1724 100.979 11.7583 101.365 12.5259C101.758 13.2876 101.954 14.1606 101.954 15.145C101.954 15.1743 101.954 15.2036 101.954 15.2329C101.954 16.8325 101.532 18.0835 100.688 18.9858C99.8447 19.8882 98.6699 20.3394 97.1641 20.3394C97.1406 20.3394 97.1143 20.3394 97.085 20.3394C96.1826 20.3394 95.374 20.1343 94.6592 19.7241C93.9502 19.3081 93.3994 18.7163 93.0068 17.9487C92.6201 17.1812 92.4268 16.3052 92.4268 15.3208C92.4268 15.2915 92.4268 15.2622 92.4268 15.2329C92.4268 13.6274 92.8457 12.3823 93.6836 11.4976C94.5215 10.6011 95.6992 10.1528 97.2168 10.1528C97.2402 10.1528 97.2666 10.1528 97.2959 10.1528ZM98.7285 13.0356C98.4062 12.5552 97.8906 12.3149 97.1816 12.3149C96.4727 12.3149 95.957 12.5522 95.6348 13.0269C95.3184 13.5015 95.1602 14.2368 95.1602 15.2329C95.1602 16.2231 95.3213 16.9644 95.6436 17.4565C95.9717 17.9429 96.4873 18.186 97.1904 18.186C97.8994 18.186 98.4121 17.9429 98.7285 17.4565C99.0508 16.9702 99.2119 16.2319 99.2119 15.2417C99.2119 14.2456 99.0508 13.5103 98.7285 13.0356Z" fill="white"/>
<path d="M90.3438 10.1528C90.7129 10.1528 91.0146 10.1792 91.249 10.2319L91.0469 12.7456C90.8359 12.687 90.5723 12.6577 90.2559 12.6577C89.4004 12.6577 88.7324 12.8774 88.252 13.3169C87.7773 13.7563 87.54 14.3716 87.54 15.1626V20.1636H84.8594V10.3374H86.8896L87.2852 11.9897H87.417C87.7334 11.4272 88.1436 10.9849 88.6475 10.6626C89.1631 10.3228 89.7285 10.1528 90.3438 10.1528Z" fill="white"/>
<path d="M76.1494 6.48779V9.66943C76.1494 10.0737 76.1143 10.7241 76.0439 11.6206H76.1494C76.7705 10.6421 77.6787 10.1528 78.874 10.1528C80.0752 10.1528 81.0039 10.6099 81.6602 11.5239C82.3164 12.4146 82.6445 13.6626 82.6445 15.2681C82.6445 16.8677 82.3047 18.1128 81.625 19.0034C80.9453 19.894 80.0283 20.3394 78.874 20.3394C77.7197 20.3394 76.8115 19.9204 76.1494 19.0825H75.9648L75.5166 20.1636H73.4688V6.48779H76.1494ZM76.1494 15.2153C76.1494 16.2642 76.3047 17.02 76.6152 17.4829C76.9258 17.9399 77.4238 18.1685 78.1094 18.1685C78.666 18.1685 79.1055 17.9136 79.4277 17.4038C79.75 16.8882 79.9111 16.1558 79.9111 15.2065C79.9111 14.2515 79.75 13.5278 79.4277 13.0356C79.1055 12.5435 78.6543 12.2974 78.0742 12.2974C77.4062 12.2974 76.9199 12.5024 76.6152 12.9126C76.3164 13.3228 76.1611 13.9937 76.1494 14.9253V15.2153Z" fill="white"/>
<path d="M67.8525 7.80615C67.8525 6.92725 68.3389 6.48779 69.3115 6.48779C70.2842 6.48779 70.7705 6.92432 70.7705 7.79736C70.7705 8.21924 70.6475 8.54443 70.4014 8.77295C70.1553 9.00146 69.792 9.11572 69.3115 9.11572C68.3389 9.11572 67.8525 8.6792 67.8525 7.80615ZM70.6475 20.1636H67.9668V10.3374H70.6475V20.1636Z" fill="white"/>
<path d="M60.7246 17.9136H65.9365V20.1636H58V7.31396H60.7246V17.9136Z" fill="white"/>
<path d="M249.927 41.3755H248.601L243.139 32.9878H243.084C243.157 33.9403 243.194 34.8426 243.194 35.6948V41.3755H242.121V31.3813H243.433L248.881 39.7349H248.936L248.875 38.5522C248.852 38.0783 248.84 37.741 248.84 37.5405C248.84 37.3354 248.84 37.1942 248.84 37.1167V31.3813H249.927V41.3755Z" fill="white"/>
<path d="M235.628 28.3394V28.4829C235.423 28.7837 235.122 29.1506 234.726 29.5835C234.329 30.0164 233.987 30.3491 233.7 30.5815H232.941V30.4106C233.16 30.1281 233.395 29.7863 233.646 29.3853C233.901 28.9842 234.101 28.6356 234.247 28.3394H235.628ZM229.291 36.3647C229.291 34.7241 229.692 33.4572 230.494 32.564C231.301 31.6707 232.429 31.2241 233.878 31.2241C235.332 31.2241 236.462 31.6799 237.269 32.5913C238.08 33.5028 238.485 34.7606 238.485 36.3647C238.485 37.9689 238.08 39.229 237.269 40.145C236.457 41.0565 235.325 41.5122 233.871 41.5122C232.417 41.5122 231.289 41.0633 230.487 40.1655C229.69 39.2677 229.291 38.0008 229.291 36.3647ZM237.255 36.3784C237.255 35.0249 236.972 34.0018 236.407 33.3091C235.847 32.6118 235.013 32.2632 233.905 32.2632C232.802 32.2632 231.962 32.6141 231.383 33.3159C230.809 34.0132 230.521 35.034 230.521 36.3784C230.521 37.7183 230.809 38.7391 231.383 39.4409C231.962 40.1427 232.802 40.4937 233.905 40.4937C235.008 40.4937 235.842 40.145 236.407 39.4478C236.972 38.7505 237.255 37.7274 237.255 36.3784Z" fill="white"/>
<path d="M225.662 41.3755H224.5V31.3813H225.662V41.3755Z" fill="white"/>
<path d="M220.352 41.3755H219.026L213.564 32.9878H213.509C213.582 33.9403 213.619 34.8426 213.619 35.6948V41.3755H212.545V31.3813H213.858L219.306 39.7349H219.361L219.299 38.5522C219.277 38.0783 219.265 37.741 219.265 37.5405C219.265 37.3354 219.265 37.1942 219.265 37.1167V31.3813H220.352V41.3755Z" fill="white"/>
<path d="M208.397 41.3755H207.235V31.3813H208.397V41.3755Z" fill="white"/>
<path d="M197.4 31.3813H199.991C202.488 31.3813 203.737 32.3521 203.737 34.2935C203.737 35.3052 203.39 36.0845 202.698 36.6313C202.01 37.1737 201.023 37.4448 199.738 37.4448H198.562V41.3755H197.4V31.3813ZM198.562 32.3862V36.4468H199.608C200.642 36.4468 201.388 36.2804 201.843 35.9478C202.304 35.6105 202.534 35.0955 202.534 34.4028C202.534 33.7056 202.315 33.1951 201.877 32.8716C201.444 32.548 200.772 32.3862 199.861 32.3862H198.562Z" fill="white"/>
<path d="M184.57 36.3716C184.57 34.7355 184.971 33.4686 185.773 32.5708C186.576 31.673 187.703 31.2241 189.157 31.2241C190.616 31.2241 191.748 31.6799 192.555 32.5913C193.361 33.5028 193.765 34.7606 193.765 36.3647C193.765 37.9689 193.359 39.229 192.548 40.145C191.741 41.0565 190.609 41.5122 189.15 41.5122C187.697 41.5122 186.569 41.0633 185.767 40.1655C184.969 39.2677 184.57 38.0031 184.57 36.3716ZM192.534 36.3784C192.534 35.0249 192.252 34.0018 191.687 33.3091C191.126 32.6118 190.292 32.2632 189.185 32.2632C188.082 32.2632 187.241 32.6141 186.662 33.3159C186.088 34.0132 185.801 35.034 185.801 36.3784C185.801 37.7183 186.088 38.7391 186.662 39.4409C187.241 40.1427 188.082 40.4937 189.185 40.4937C190.287 40.4937 191.121 40.145 191.687 39.4478C192.252 38.7505 192.534 37.7274 192.534 36.3784Z" fill="white"/>
<path d="M176 31.3813V37.8481C176 38.992 175.654 39.8898 174.961 40.5415C174.273 41.1886 173.33 41.5122 172.131 41.5122C170.933 41.5122 170.001 41.1841 169.335 40.5278C168.679 39.8716 168.351 38.9692 168.351 37.8208V31.3813H169.513V37.9028C169.513 38.7414 169.741 39.384 170.197 39.8306C170.657 40.2726 171.318 40.4937 172.179 40.4937C173.041 40.4937 173.699 40.2681 174.155 39.8169C174.611 39.3657 174.838 38.7231 174.838 37.8892V31.3813H176Z" fill="white"/>
<path d="M165.543 32.4136H162.378V41.3755H161.216V32.4136H158.051V31.3813H165.543V32.4136Z" fill="white"/>
<path d="M147.308 40.4937C148.073 40.4937 148.654 40.3478 149.051 40.0562C149.447 39.7645 149.646 39.3543 149.646 38.8257C149.646 38.4839 149.575 38.2013 149.434 37.978C149.297 37.7547 149.067 37.5519 148.743 37.3696C148.424 37.1828 147.927 36.9686 147.253 36.7271C146.319 36.3898 145.653 35.9933 145.257 35.5376C144.86 35.0819 144.662 34.4803 144.662 33.7329C144.662 32.981 144.951 32.3771 145.53 31.9214C146.109 31.4657 146.884 31.2378 147.854 31.2378C148.825 31.2378 149.728 31.4201 150.562 31.7847L150.206 32.7964C149.386 32.45 148.584 32.2769 147.8 32.2769C147.185 32.2769 146.704 32.409 146.357 32.6733C146.011 32.9377 145.838 33.3045 145.838 33.7739C145.838 34.1157 145.902 34.3983 146.029 34.6216C146.157 34.8449 146.367 35.0477 146.658 35.23C146.954 35.4077 147.424 35.6128 148.066 35.8452C149.124 36.228 149.846 36.6336 150.233 37.062C150.625 37.4904 150.821 38.0418 150.821 38.7163C150.821 39.5868 150.502 40.2726 149.864 40.7739C149.226 41.2661 148.335 41.5122 147.191 41.5122C146.048 41.5122 145.161 41.3595 144.532 41.0542V39.9331C145.412 40.3068 146.337 40.4937 147.308 40.4937Z" fill="white"/>
<path d="M132.352 36.3716C132.352 34.7355 132.753 33.4686 133.555 32.5708C134.357 31.673 135.485 31.2241 136.938 31.2241C138.397 31.2241 139.529 31.6799 140.336 32.5913C141.143 33.5028 141.546 34.7606 141.546 36.3647C141.546 37.9689 141.14 39.229 140.329 40.145C139.522 41.0565 138.39 41.5122 136.932 41.5122C135.478 41.5122 134.35 41.0633 133.548 40.1655C132.75 39.2677 132.352 38.0031 132.352 36.3716ZM140.315 36.3784C140.315 35.0249 140.033 34.0018 139.468 33.3091C138.907 32.6118 138.073 32.2632 136.966 32.2632C135.863 32.2632 135.022 32.6141 134.443 33.3159C133.869 34.0132 133.582 35.034 133.582 36.3784C133.582 37.7183 133.869 38.7391 134.443 39.4409C135.022 40.1427 135.863 40.4937 136.966 40.4937C138.069 40.4937 138.903 40.145 139.468 39.4478C140.033 38.7505 140.315 37.7274 140.315 36.3784Z" fill="white"/>
<path d="M128.723 41.3755H127.397L121.935 32.9878H121.88C121.953 33.9403 121.99 34.8426 121.99 35.6948V41.3755H120.917V31.3813H122.229L127.677 39.7349H127.732L127.67 38.5522C127.648 38.0783 127.636 37.741 127.636 37.5405C127.636 37.3354 127.636 37.1942 127.636 37.1167V31.3813H128.723V41.3755Z" fill="white"/>
<path d="M118.143 41.3755H116.939L115.695 38.1968H111.689L110.459 41.3755H109.283L113.234 31.3403H114.212L118.143 41.3755ZM115.333 37.1509L114.171 34.0542C114.016 33.6532 113.861 33.1724 113.706 32.6118C113.606 33.0402 113.462 33.521 113.275 34.0542L112.1 37.1509H115.333Z" fill="white"/>
<path d="M107.747 32.4136H104.582V41.3755H103.419V32.4136H100.254V31.3813H107.747V32.4136Z" fill="white"/>
<path d="M97.3574 41.3755H96.0312L90.5693 32.9878H90.5146C90.5876 33.9403 90.624 34.8426 90.624 35.6948V41.3755H89.5508V31.3813H90.8633L96.3115 39.7349H96.3662L96.3047 38.5522C96.2819 38.0783 96.2705 37.741 96.2705 37.5405C96.2705 37.3354 96.2705 37.1942 96.2705 37.1167V31.3813H97.3574V41.3755Z" fill="white"/>
<path d="M84.7871 28.3394V28.4829C84.582 28.7837 84.2812 29.1506 83.8848 29.5835C83.4883 30.0164 83.1465 30.3491 82.8594 30.5815H82.1006V30.4106C82.3193 30.1281 82.554 29.7863 82.8047 29.3853C83.0599 28.9842 83.2604 28.6356 83.4062 28.3394H84.7871ZM85.9287 32.4136H81.5195V35.6333H85.6621V36.6587H81.5195V40.3364H85.9287V41.3755H80.3574V31.3813H85.9287V32.4136Z" fill="white"/>
<path d="M76.3052 31.3813V37.8481C76.3052 38.992 75.9588 39.8898 75.2661 40.5415C74.578 41.1886 73.6346 41.5122 72.436 41.5122C71.2375 41.5122 70.3055 41.1841 69.6401 40.5278C68.9839 39.8716 68.6558 38.9692 68.6558 37.8208V31.3813H69.8179V37.9028C69.8179 38.7414 70.0457 39.384 70.5015 39.8306C70.9618 40.2726 71.6226 40.4937 72.4839 40.4937C73.3452 40.4937 74.0037 40.2681 74.4595 39.8169C74.9152 39.3657 75.1431 38.7231 75.1431 37.8892V31.3813H76.3052Z" fill="white"/>
<path d="M62.6074 41.5122C61.1309 41.5122 59.9938 41.0656 59.1963 40.1724C58.3988 39.2791 58 38.0099 58 36.3647C58 36.342 58 36.3192 58 36.2964C58 35.3029 58.1914 34.4211 58.5742 33.6509C58.9616 32.8807 59.5176 32.286 60.2422 31.8667C60.9714 31.4474 61.8076 31.2378 62.751 31.2378C62.7738 31.2378 62.7943 31.2378 62.8125 31.2378C63.8561 31.2378 64.7721 31.4292 65.5605 31.812L65.0684 32.8101C64.3073 32.4546 63.5508 32.2769 62.7988 32.2769C61.7005 32.2769 60.8324 32.6437 60.1943 33.3774C59.5609 34.1066 59.2441 35.116 59.2441 36.4058C59.2441 37.6909 59.5495 38.6935 60.1602 39.4136C60.7754 40.1245 61.6504 40.48 62.7852 40.48C63.487 40.48 64.2822 40.3547 65.1709 40.104V41.1226C64.46 41.3823 63.6055 41.5122 62.6074 41.5122Z" fill="white"/>
</svg>
